M48
; DRILL file {KiCad 7.0.6} date Tue Jul 18 08:51:50 2023
; FORMAT={-:-/ absolute / inch / decimal}
; #@! TF.CreationDate,2023-07-18T08:51:50+02:00
; #@! TF.GenerationSoftware,Kicad,Pcbnew,7.0.6
; #@! TF.FileFunction,MixedPlating,1,2
FMAT,2
INCH
; #@! TA.AperFunction,Plated,PTH,ViaDrill
T1C0.0315
; #@! TA.AperFunction,Plated,PTH,ComponentDrill
T2C0.0315
; #@! TA.AperFunction,Plated,PTH,ComponentDrill
T3C0.0394
; #@! TA.AperFunction,Plated,PTH,ComponentDrill
T4C0.0472
; #@! TA.AperFunction,Plated,PTH,ComponentDrill
T5C0.0787
; #@! TA.AperFunction,Plated,PTH,ComponentDrill
T6C0.1673
; #@! TA.AperFunction,NonPlated,NPTH,ComponentDrill
T7C0.1378
%
G90
G05
T1
X3.1094Y-3.348
X3.1929Y-3.4594
X3.2925Y-4.3937
X3.3193Y-7.5587
X3.3988Y-7.3913
X3.4421Y-7.2917
X3.4587Y-4.0654
X3.4614Y-4.6142
X3.5228Y-2.7654
X3.5248Y-7.4634
X3.5579Y-3.9055
X3.5815Y-2.6728
X3.6713Y-7.4634
X3.8248Y-7.4634
X3.8972Y-3.0567
X3.8972Y-3.9539
X3.8972Y-4.8579
X4.0012Y-7.4634
X4.0134Y-6.0571
X4.0134Y-6.2634
X4.0134Y-6.3634
X4.0134Y-6.4634
X4.0902Y-6.1374
X4.2193Y-6.6642
X4.3362Y-3.2921
X4.4185Y-6.6839
X4.4646Y-7.4354
X4.5185Y-6.6839
X4.5209Y-4.313
X4.5614Y-3.8882
X4.5614Y-4.9098
X4.5614Y-5.0138
X4.5949Y-7.4098
X4.6185Y-6.6839
X4.7516Y-7.3449
X4.8996Y-7.2874
X4.9114Y-4.0988
X4.922Y-3.8264
X4.922Y-3.9681
X4.9224Y-5.2327
X4.9283Y-5.1031
X4.9283Y-5.3598
X5.0181Y-5.4902
X5.0701Y-7.2319
X5.1228Y-5.6846
X5.2134Y-7.1835
X5.2248Y-3.5378
X5.5283Y-5.5358
X5.6717Y-5.639
X5.7Y-2.911
X5.8748Y-3.5378
X5.9197Y-7.563
X6.0224Y-7.2858
X6.0583Y-6.3425
X6.063Y-6.7378
X6.1197Y-7.563
X6.1591Y-5.5339
X6.2197Y-7.563
X6.2209Y-6.5579
X6.2795Y-5.5854
X6.3189Y-4.2228
X6.3772Y-7.5339
X6.4358Y-6.8079
X6.4358Y-6.8563
X6.4992Y-5.4795
X6.5248Y-3.5378
X6.8374Y-6.8756
X6.8906Y-6.8756
X6.9413Y-6.8874
X6.9886Y-5.7819
X6.9957Y-7.0866
X7.0Y-2.911
X7.0673Y-7.0091
X7.0886Y-5.7366
X7.1701Y-5.6874
X7.1748Y-3.5378
X7.261Y-5.6366
X7.3126Y-5.9138
X7.3453Y-5.5701
X7.3622Y-6.2756
X7.4642Y-5.8571
X7.6177Y-4.2228
X7.6657Y-5.8138
X7.726Y-6.5591
X7.7933Y-5.4795
X7.8248Y-3.5378
X8.2185Y-6.6071
X8.2697Y-6.2756
X8.3Y-2.911
X8.3157Y-6.6618
X8.4748Y-3.5378
X8.9173Y-4.2228
X8.9957Y-7.3559
X9.0016Y-6.4583
X9.0591Y-5.8583
X9.0933Y-5.4795
X9.1146Y-5.9335
X9.1248Y-3.5378
X9.1654Y-6.0106
X9.2063Y-6.0921
X9.35Y-7.287
X9.361Y-5.7575
X9.4736Y-7.55
X9.6091Y-5.8083
X9.687Y-2.911
X9.75Y-7.2067
X9.7748Y-3.5378
X10.2933Y-3.2043
X10.4402Y-5.6547
X10.5071Y-7.4697
X10.565Y-6.1811
X10.6445Y-5.987
X10.6961Y-7.4287
X10.822Y-6.0878
X10.822Y-6.3803
X10.8626Y-5.6154
X10.9138Y-6.7764
X10.9831Y-5.939
X11.0142Y-6.4307
X11.5134Y-6.5815
X11.5173Y-3.6295
X11.5484Y-5.3831
X11.5917Y-6.5311
X11.6843Y-3.3331
X11.8063Y-4.0567
X11.8063Y-6.5524
X12.1449Y-5.2559
X12.2126Y-2.7354
X12.2331Y-7.0764
X12.2709Y-6.1811
X12.2736Y-3.2169
X12.285Y-6.8768
X12.2913Y-5.7146
X12.3209Y-5.878
X12.7839Y-4.9291
X12.789Y-4.0075
X12.8114Y-6.0787
X12.8343Y-5.0323
X12.9138Y-3.1354
X12.9866Y-4.7815
X13.5087Y-4.8287
T2
X3.0Y-3.0
X3.0Y-3.1
X3.0Y-3.2
X3.0Y-3.3
X3.0Y-3.4
X3.0Y-3.5
X3.0Y-3.6
X3.0Y-4.8
X3.0Y-4.9
X3.0Y-5.0
X3.0Y-5.1
X3.0Y-5.2
X3.0Y-5.3
X3.0Y-5.4
X3.0Y-5.8
X3.0Y-5.9
X3.0Y-6.0
X3.0Y-6.1
X3.0Y-6.2
X3.0Y-6.3
X3.0Y-6.4
X3.0366Y-2.8457
X3.0429Y-5.6315
X3.2701Y-6.6724
X3.2701Y-7.1724
X3.2866Y-2.8457
X3.2929Y-5.6315
X3.3Y-3.0
X3.3Y-3.1
X3.3Y-3.2
X3.3Y-3.3
X3.3Y-3.4
X3.3Y-3.5
X3.3Y-3.6
X3.3Y-4.8
X3.3Y-4.9
X3.3Y-5.0
X3.3Y-5.1
X3.3Y-5.2
X3.3Y-5.3
X3.3Y-5.4
X3.3Y-5.8
X3.3Y-5.9
X3.3Y-6.0
X3.3Y-6.1
X3.3Y-6.2
X3.3Y-6.3
X3.3Y-6.4
X3.7929Y-5.6315
X3.8Y-3.0
X3.8Y-3.1
X3.8Y-3.2
X3.8Y-3.3
X3.8Y-3.4
X3.8Y-3.5
X3.8Y-3.6
X3.8Y-3.7
X3.8Y-3.9
X3.8Y-4.0
X3.8Y-4.1
X3.8Y-4.2
X3.8Y-4.3
X3.8Y-4.4
X3.8Y-4.5
X3.8Y-4.6
X3.8Y-4.8
X3.8Y-4.9
X3.8Y-5.0
X3.8Y-5.1
X3.8Y-5.2
X3.8Y-5.3
X3.8Y-5.4
X3.8Y-5.5
X3.8063Y-2.8457
X4.0429Y-5.6315
X4.0563Y-2.8457
X4.1Y-3.0
X4.1Y-3.1
X4.1Y-3.2
X4.1Y-3.3
X4.1Y-3.4
X4.1Y-3.5
X4.1Y-3.6
X4.1Y-3.7
X4.1Y-3.9
X4.1Y-4.0
X4.1Y-4.1
X4.1Y-4.2
X4.1Y-4.3
X4.1Y-4.4
X4.1Y-4.5
X4.1Y-4.6
X4.1Y-4.8
X4.1Y-4.9
X4.1Y-5.0
X4.1Y-5.1
X4.1Y-5.2
X4.1Y-5.3
X4.1Y-5.4
X4.1Y-5.5
X4.3Y-5.95
X4.3Y-6.05
X4.3Y-6.15
X4.3Y-6.25
X4.3Y-6.35
X4.3Y-6.45
X4.3Y-6.55
X4.6Y-5.95
X4.6Y-6.05
X4.6Y-6.15
X4.6Y-6.25
X4.6Y-6.35
X4.6Y-6.45
X4.6Y-6.55
X4.6929Y-5.765
X4.8Y-5.95
X4.8Y-6.05
X4.8Y-6.15
X4.8Y-6.25
X4.8Y-6.35
X4.8Y-6.45
X4.8Y-6.55
X4.8Y-6.65
X5.05Y-3.1
X5.05Y-3.2
X5.05Y-3.3
X5.05Y-3.4
X5.05Y-3.5
X5.05Y-3.6
X5.05Y-3.7
X5.05Y-3.8
X5.05Y-3.9
X5.05Y-4.0
X5.05Y-4.1
X5.05Y-4.4
X5.05Y-4.5
X5.05Y-4.6
X5.05Y-4.7
X5.05Y-4.8
X5.05Y-4.9
X5.05Y-5.0
X5.05Y-5.1
X5.05Y-5.2
X5.05Y-5.3
X5.05Y-5.4
X5.1Y-5.95
X5.1Y-6.05
X5.1Y-6.15
X5.1Y-6.25
X5.1Y-6.35
X5.1Y-6.45
X5.1Y-6.55
X5.1Y-6.65
X5.1855Y-4.2587
X5.1929Y-5.765
X5.3Y-5.95
X5.3Y-6.05
X5.3Y-6.15
X5.3Y-6.25
X5.3Y-6.35
X5.3Y-6.45
X5.3Y-6.55
X5.3181Y-5.8091
X5.3842Y-2.811
X5.4355Y-4.2587
X5.45Y-3.1
X5.45Y-3.2
X5.45Y-3.3
X5.45Y-3.4
X5.45Y-3.5
X5.45Y-3.6
X5.45Y-3.7
X5.45Y-3.8
X5.45Y-3.9
X5.45Y-4.0
X5.45Y-4.1
X5.45Y-4.4
X5.45Y-4.5
X5.45Y-4.6
X5.45Y-4.7
X5.45Y-4.8
X5.45Y-4.9
X5.45Y-5.0
X5.45Y-5.1
X5.45Y-5.2
X5.45Y-5.3
X5.45Y-5.4
X5.5276Y-3.0157
X5.5681Y-5.8091
X5.6Y-5.95
X5.6Y-6.05
X5.6Y-6.15
X5.6Y-6.25
X5.6Y-6.35
X5.6Y-6.45
X5.6Y-6.55
X5.7Y-3.1
X5.7Y-3.2
X5.7Y-3.3
X5.7Y-3.4
X5.7Y-3.5
X5.7Y-3.6
X5.7Y-3.7
X5.7Y-3.8
X5.7Y-3.9
X5.7Y-4.0
X5.7Y-4.1
X5.7Y-4.4
X5.7Y-4.5
X5.7Y-4.6
X5.7Y-4.7
X5.7Y-4.8
X5.7Y-4.9
X5.7Y-5.0
X5.7Y-5.1
X5.7Y-5.2
X5.7Y-5.3
X5.7Y-5.4
X5.8366Y-4.2583
X5.9705Y-7.5642
X6.0342Y-2.811
X6.0866Y-4.2583
X6.1Y-3.1
X6.1Y-3.2
X6.1Y-3.3
X6.1Y-3.4
X6.1Y-3.5
X6.1Y-3.6
X6.1Y-3.7
X6.1Y-3.8
X6.1Y-3.9
X6.1Y-4.0
X6.1Y-4.1
X6.1Y-4.4
X6.1Y-4.5
X6.1Y-4.6
X6.1Y-4.7
X6.1Y-4.8
X6.1Y-4.9
X6.1Y-5.0
X6.1Y-5.1
X6.1Y-5.2
X6.1Y-5.3
X6.1Y-5.4
X6.1776Y-3.0157
X6.3Y-2.911
X6.3191Y-7.5337
X6.35Y-3.1
X6.35Y-3.2
X6.35Y-3.3
X6.35Y-3.4
X6.35Y-3.5
X6.35Y-3.6
X6.35Y-3.7
X6.35Y-3.8
X6.35Y-3.9
X6.35Y-4.0
X6.35Y-4.1
X6.35Y-4.4
X6.35Y-4.5
X6.35Y-4.6
X6.35Y-4.7
X6.35Y-4.8
X6.35Y-4.9
X6.35Y-5.0
X6.35Y-5.1
X6.35Y-5.2
X6.35Y-5.3
X6.35Y-5.4
X6.487Y-4.2583
X6.5269Y-3.0159
X6.6839Y-2.811
X6.737Y-4.2583
X6.75Y-3.1
X6.75Y-3.2
X6.75Y-3.3
X6.75Y-3.4
X6.75Y-3.5
X6.75Y-3.6
X6.75Y-3.7
X6.75Y-3.8
X6.75Y-3.9
X6.75Y-4.0
X6.75Y-4.1
X6.75Y-4.4
X6.75Y-4.5
X6.75Y-4.6
X6.75Y-4.7
X6.75Y-4.8
X6.75Y-4.9
X6.75Y-5.0
X6.75Y-5.1
X6.75Y-5.2
X6.75Y-5.3
X6.75Y-5.4
X6.8273Y-3.0157
X7.0Y-3.1
X7.0Y-3.2
X7.0Y-3.3
X7.0Y-3.4
X7.0Y-3.5
X7.0Y-3.6
X7.0Y-3.7
X7.0Y-3.8
X7.0Y-3.9
X7.0Y-4.0
X7.0Y-4.1
X7.0Y-4.4
X7.0Y-4.5
X7.0Y-4.6
X7.0Y-4.7
X7.0Y-4.8
X7.0Y-4.9
X7.0Y-5.0
X7.0Y-5.1
X7.0Y-5.2
X7.0Y-5.3
X7.0Y-5.4
X7.1Y-6.1
X7.1Y-6.4
X7.1378Y-4.2583
X7.2Y-6.1
X7.2Y-6.4
X7.2Y-6.8
X7.2Y-7.1
X7.3Y-6.1
X7.3Y-6.4
X7.3Y-6.8
X7.3Y-7.1
X7.3341Y-2.811
X7.3878Y-4.2583
X7.4Y-3.1
X7.4Y-3.2
X7.4Y-3.3
X7.4Y-3.4
X7.4Y-3.5
X7.4Y-3.6
X7.4Y-3.7
X7.4Y-3.8
X7.4Y-3.9
X7.4Y-4.0
X7.4Y-4.1
X7.4Y-4.4
X7.4Y-4.5
X7.4Y-4.6
X7.4Y-4.7
X7.4Y-4.8
X7.4Y-4.9
X7.4Y-5.0
X7.4Y-5.1
X7.4Y-5.2
X7.4Y-5.3
X7.4Y-5.4
X7.4Y-6.1
X7.4Y-6.4
X7.4Y-6.8
X7.4Y-7.1
X7.4775Y-3.0157
X7.5Y-6.1
X7.5Y-6.4
X7.5Y-6.8
X7.5Y-7.1
X7.6Y-2.911
X7.6Y-6.1
X7.6Y-6.4
X7.6Y-6.8
X7.6Y-7.1
X7.65Y-3.1
X7.65Y-3.2
X7.65Y-3.3
X7.65Y-3.4
X7.65Y-3.5
X7.65Y-3.6
X7.65Y-3.7
X7.65Y-3.8
X7.65Y-3.9
X7.65Y-4.0
X7.65Y-4.1
X7.65Y-4.4
X7.65Y-4.5
X7.65Y-4.6
X7.65Y-4.7
X7.65Y-4.8
X7.65Y-4.9
X7.65Y-5.0
X7.65Y-5.1
X7.65Y-5.2
X7.65Y-5.3
X7.65Y-5.4
X7.7Y-6.1
X7.7Y-6.4
X7.7Y-6.8
X7.7Y-7.1
X7.7902Y-4.2583
X7.8Y-6.1
X7.8Y-6.4
X7.8Y-6.8
X7.8Y-7.1
X7.8269Y-3.0159
X7.9842Y-2.811
X7.9929Y-6.1287
X7.9929Y-6.3787
X7.9929Y-6.8287
X7.9929Y-7.0787
X8.0402Y-4.2583
X8.05Y-3.1
X8.05Y-3.2
X8.05Y-3.3
X8.05Y-3.4
X8.05Y-3.5
X8.05Y-3.6
X8.05Y-3.7
X8.05Y-3.8
X8.05Y-3.9
X8.05Y-4.0
X8.05Y-4.1
X8.05Y-4.4
X8.05Y-4.5
X8.05Y-4.6
X8.05Y-4.7
X8.05Y-4.8
X8.05Y-4.9
X8.05Y-5.0
X8.05Y-5.1
X8.05Y-5.2
X8.05Y-5.3
X8.05Y-5.4
X8.1276Y-3.0157
X8.2Y-6.1
X8.2Y-6.4
X8.3Y-3.1
X8.3Y-3.2
X8.3Y-3.3
X8.3Y-3.4
X8.3Y-3.5
X8.3Y-3.6
X8.3Y-3.7
X8.3Y-3.8
X8.3Y-3.9
X8.3Y-4.0
X8.3Y-4.1
X8.3Y-4.4
X8.3Y-4.5
X8.3Y-4.6
X8.3Y-4.7
X8.3Y-4.8
X8.3Y-4.9
X8.3Y-5.0
X8.3Y-5.1
X8.3Y-5.2
X8.3Y-5.3
X8.3Y-5.4
X8.3Y-6.1
X8.3Y-6.4
X8.3Y-6.8
X8.3Y-7.1
X8.4Y-6.1
X8.4Y-6.4
X8.4Y-6.8
X8.4Y-7.1
X8.4409Y-4.2583
X8.5Y-6.1
X8.5Y-6.4
X8.5Y-6.8
X8.5Y-7.1
X8.6Y-6.1
X8.6Y-6.4
X8.6Y-6.8
X8.6Y-7.1
X8.6342Y-2.811
X8.6909Y-4.2583
X8.7Y-3.1
X8.7Y-3.2
X8.7Y-3.3
X8.7Y-3.4
X8.7Y-3.5
X8.7Y-3.6
X8.7Y-3.7
X8.7Y-3.8
X8.7Y-3.9
X8.7Y-4.0
X8.7Y-4.1
X8.7Y-4.4
X8.7Y-4.5
X8.7Y-4.6
X8.7Y-4.7
X8.7Y-4.8
X8.7Y-4.9
X8.7Y-5.0
X8.7Y-5.1
X8.7Y-5.2
X8.7Y-5.3
X8.7Y-5.4
X8.7Y-6.1
X8.7Y-6.4
X8.7Y-6.8
X8.7Y-7.1
X8.7776Y-3.0157
X8.8Y-6.1
X8.8Y-6.4
X8.8Y-6.8
X8.8Y-7.1
X8.8748Y-2.911
X8.9Y-6.1
X8.9Y-6.4
X8.9Y-6.8
X8.9Y-7.1
X8.95Y-3.1
X8.95Y-3.2
X8.95Y-3.3
X8.95Y-3.4
X8.95Y-3.5
X8.95Y-3.6
X8.95Y-3.7
X8.95Y-3.8
X8.95Y-3.9
X8.95Y-4.0
X8.95Y-4.1
X8.95Y-4.4
X8.95Y-4.5
X8.95Y-4.6
X8.95Y-4.7
X8.95Y-4.8
X8.95Y-4.9
X8.95Y-5.0
X8.95Y-5.1
X8.95Y-5.2
X8.95Y-5.3
X8.95Y-5.4
X9.0945Y-4.2583
X9.1017Y-3.0159
X9.1429Y-6.8287
X9.1429Y-7.0787
X9.2838Y-2.811
X9.3Y-6.1
X9.3Y-6.4
X9.3Y-6.8
X9.3Y-7.1
X9.3445Y-4.2583
X9.35Y-3.1
X9.35Y-3.2
X9.35Y-3.3
X9.35Y-3.4
X9.35Y-3.5
X9.35Y-3.6
X9.35Y-3.7
X9.35Y-3.8
X9.35Y-3.9
X9.35Y-4.0
X9.35Y-4.1
X9.35Y-4.4
X9.35Y-4.5
X9.35Y-4.6
X9.35Y-4.7
X9.35Y-4.8
X9.35Y-4.9
X9.35Y-5.0
X9.35Y-5.1
X9.35Y-5.2
X9.35Y-5.3
X9.35Y-5.4
X9.4Y-6.1
X9.4Y-6.4
X9.4Y-6.8
X9.4Y-7.1
X9.4272Y-3.0157
X9.5Y-6.1
X9.5Y-6.4
X9.5Y-6.8
X9.5Y-7.1
X9.6Y-3.1
X9.6Y-3.2
X9.6Y-3.3
X9.6Y-3.4
X9.6Y-3.5
X9.6Y-3.6
X9.6Y-3.7
X9.6Y-3.8
X9.6Y-3.9
X9.6Y-4.0
X9.6Y-4.1
X9.6Y-4.4
X9.6Y-4.5
X9.6Y-4.6
X9.6Y-4.7
X9.6Y-4.8
X9.6Y-4.9
X9.6Y-5.0
X9.6Y-5.1
X9.6Y-5.2
X9.6Y-5.3
X9.6Y-5.4
X9.6Y-6.1
X9.6Y-6.4
X9.6Y-6.8
X9.6Y-7.1
X9.7Y-6.1
X9.7Y-6.4
X9.7Y-6.8
X9.7Y-7.1
X9.7449Y-4.2583
X9.7858Y-5.5555
X9.8Y-6.1
X9.8Y-6.4
X9.8Y-6.8
X9.8Y-7.1
X9.8Y-7.3827
X9.9Y-6.1
X9.9Y-6.4
X9.9Y-6.8
X9.9Y-7.1
X9.9Y-7.4827
X9.9342Y-2.811
X9.9913Y-5.9091
X9.9949Y-4.2583
X10.0Y-3.1
X10.0Y-3.2
X10.0Y-3.3
X10.0Y-3.4
X10.0Y-3.5
X10.0Y-3.6
X10.0Y-3.7
X10.0Y-3.8
X10.0Y-3.9
X10.0Y-4.0
X10.0Y-4.1
X10.0Y-4.4
X10.0Y-4.5
X10.0Y-4.6
X10.0Y-4.7
X10.0Y-4.8
X10.0Y-4.9
X10.0Y-5.0
X10.0Y-5.1
X10.0Y-5.2
X10.0Y-5.3
X10.0Y-5.4
X10.0Y-6.1
X10.0Y-6.4
X10.0Y-6.8
X10.0Y-7.1
X10.0Y-7.3827
X10.0358Y-5.5555
X10.0776Y-3.0157
X10.1469Y-6.7559
X10.1469Y-7.2559
X10.1693Y-6.1319
X10.1693Y-6.3819
X10.2327Y-5.0748
X10.2417Y-4.9327
X10.2563Y-5.2803
X10.2563Y-5.3803
X10.2713Y-6.1827
X10.2713Y-6.6827
X10.2717Y-6.7776
X10.2717Y-7.0276
X10.2937Y-5.0248
X10.2937Y-5.1248
X10.3173Y-5.3303
X10.3748Y-6.3819
X10.4Y-6.65
X10.4Y-6.75
X10.4Y-6.85
X10.4Y-6.95
X10.4Y-7.05
X10.4Y-7.15
X10.4Y-7.25
X10.4417Y-4.7807
X10.4417Y-5.1327
X10.4417Y-5.3827
X10.4626Y-3.2535
X10.4626Y-3.7535
X10.4913Y-5.9091
X10.4917Y-4.8417
X10.4917Y-5.0323
X10.5232Y-4.2535
X10.5413Y-5.1327
X10.5413Y-5.6327
X10.5417Y-4.7807
X10.5626Y-3.3287
X10.5626Y-3.8287
X10.5626Y-3.9287
X10.5732Y-4.3146
X10.6232Y-4.2535
X10.6248Y-6.3819
X10.6417Y-4.5307
X10.6417Y-4.7807
X10.6417Y-5.1327
X10.6417Y-5.6327
X10.6626Y-3.7287
X10.6626Y-3.8287
X10.7Y-6.65
X10.7Y-6.75
X10.7Y-6.85
X10.7Y-6.95
X10.7Y-7.05
X10.7Y-7.15
X10.7Y-7.25
X10.735Y-3.4484
X10.735Y-3.5484
X10.7417Y-4.2807
X10.7417Y-4.7807
X10.7417Y-4.9327
X10.7417Y-5.0323
X10.7417Y-5.1327
X10.7417Y-5.3827
X10.7626Y-4.0287
X10.7961Y-3.4984
X10.8126Y-3.6287
X10.822Y-6.2354
X10.822Y-6.7354
X10.9878Y-2.7535
X10.9878Y-3.2535
X11.0126Y-4.0287
X11.0626Y-3.9287
X11.1Y-2.9
X11.1Y-3.0
X11.1Y-3.1
X11.1Y-3.2
X11.1Y-3.3
X11.1Y-3.4
X11.1Y-3.5
X11.1Y-4.15
X11.1Y-4.25
X11.1Y-4.35
X11.1Y-4.45
X11.1Y-4.55
X11.1Y-4.65
X11.1Y-4.75
X11.1Y-5.4
X11.1Y-5.5
X11.1Y-5.6
X11.1Y-5.7
X11.1Y-5.8
X11.1Y-5.9
X11.1Y-6.0
X11.1Y-6.65
X11.1Y-6.75
X11.1Y-6.85
X11.1Y-6.95
X11.1Y-7.05
X11.1Y-7.15
X11.1Y-7.25
X11.1126Y-2.7354
X11.1453Y-4.9063
X11.1453Y-7.4287
X11.1626Y-3.7287
X11.1626Y-3.8287
X11.3126Y-3.6287
X11.3626Y-2.7354
X11.3953Y-4.9063
X11.3953Y-7.4287
X11.4Y-2.9
X11.4Y-3.0
X11.4Y-3.1
X11.4Y-3.2
X11.4Y-3.3
X11.4Y-3.4
X11.4Y-3.5
X11.4Y-4.15
X11.4Y-4.25
X11.4Y-4.35
X11.4Y-4.45
X11.4Y-4.55
X11.4Y-4.65
X11.4Y-4.75
X11.4Y-5.4
X11.4Y-5.5
X11.4Y-5.6
X11.4Y-5.7
X11.4Y-5.8
X11.4Y-5.9
X11.4Y-6.0
X11.4Y-6.65
X11.4Y-6.75
X11.4Y-6.85
X11.4Y-6.95
X11.4Y-7.05
X11.4Y-7.15
X11.4Y-7.25
X11.5374Y-2.7594
X11.5374Y-3.2343
X11.6374Y-2.7591
X11.6374Y-3.2339
X11.8Y-2.9
X11.8Y-3.0
X11.8Y-3.1
X11.8Y-3.2
X11.8Y-3.3
X11.8Y-3.4
X11.8Y-3.5
X11.8Y-3.6
X11.8Y-4.15
X11.8Y-4.25
X11.8Y-4.35
X11.8Y-4.45
X11.8Y-4.55
X11.8Y-4.65
X11.8Y-4.75
X11.8Y-4.85
X11.8Y-5.4
X11.8Y-5.5
X11.8Y-5.6
X11.8Y-5.7
X11.8Y-5.8
X11.8Y-5.9
X11.8Y-6.0
X11.8Y-6.65
X11.8Y-6.75
X11.8Y-6.85
X11.8Y-6.95
X11.8Y-7.05
X11.8Y-7.15
X11.8Y-7.25
X11.8138Y-3.9303
X11.8374Y-2.7354
X11.8425Y-7.4287
X12.0638Y-3.9303
X12.0874Y-2.7354
X12.0925Y-7.4287
X12.1Y-2.9
X12.1Y-3.0
X12.1Y-3.1
X12.1Y-3.2
X12.1Y-3.3
X12.1Y-3.4
X12.1Y-3.5
X12.1Y-3.6
X12.1Y-4.15
X12.1Y-4.25
X12.1Y-4.35
X12.1Y-4.45
X12.1Y-4.55
X12.1Y-4.65
X12.1Y-4.75
X12.1Y-4.85
X12.1Y-5.4
X12.1Y-5.5
X12.1Y-5.6
X12.1Y-5.7
X12.1Y-5.8
X12.1Y-5.9
X12.1Y-6.0
X12.1Y-6.65
X12.1Y-6.75
X12.1Y-6.85
X12.1Y-6.95
X12.1Y-7.05
X12.1Y-7.15
X12.1Y-7.25
X12.189Y-3.8079
X12.2169Y-3.9303
X12.439Y-3.8079
X12.5Y-2.9
X12.5Y-3.0
X12.5Y-3.1
X12.5Y-3.2
X12.5Y-3.3
X12.5Y-3.4
X12.5Y-3.5
X12.5Y-4.15
X12.5Y-4.25
X12.5Y-4.35
X12.5Y-4.45
X12.5Y-4.55
X12.5Y-4.65
X12.5Y-4.75
X12.5Y-5.4
X12.5Y-5.5
X12.5Y-5.6
X12.5Y-5.7
X12.5Y-5.8
X12.5Y-5.9
X12.5Y-6.0
X12.5Y-6.65
X12.5Y-6.75
X12.5Y-6.85
X12.5Y-6.95
X12.5Y-7.05
X12.5Y-7.15
X12.5Y-7.25
X12.5043Y-3.6197
X12.5043Y-3.7197
X12.5228Y-7.4287
X12.5453Y-2.7354
X12.7169Y-3.9303
X12.7185Y-6.2693
X12.7953Y-2.7354
X12.7976Y-7.4287
X12.8Y-2.9
X12.8Y-3.0
X12.8Y-3.1
X12.8Y-3.2
X12.8Y-3.3
X12.8Y-3.4
X12.8Y-3.5
X12.8Y-4.15
X12.8Y-4.25
X12.8Y-4.35
X12.8Y-4.45
X12.8Y-4.55
X12.8Y-4.65
X12.8Y-4.75
X12.8Y-5.4
X12.8Y-5.5
X12.8Y-5.6
X12.8Y-5.7
X12.8Y-5.8
X12.8Y-5.9
X12.8Y-6.0
X12.8Y-6.65
X12.8Y-6.75
X12.8Y-6.85
X12.8Y-6.95
X12.8Y-7.05
X12.8Y-7.15
X12.8Y-7.25
X13.0043Y-3.6197
X13.0043Y-3.7197
X13.2Y-2.9
X13.2Y-3.0
X13.2Y-3.1
X13.2Y-3.2
X13.2Y-3.3
X13.2Y-3.4
X13.2Y-3.5
X13.2Y-4.15
X13.2Y-4.25
X13.2Y-4.35
X13.2Y-4.45
X13.2Y-4.55
X13.2Y-4.65
X13.2Y-4.75
X13.2Y-5.4
X13.2Y-5.5
X13.2Y-5.6
X13.2Y-5.7
X13.2Y-5.8
X13.2Y-5.9
X13.2Y-6.0
X13.2Y-6.65
X13.2Y-6.75
X13.2Y-6.85
X13.2Y-6.95
X13.2Y-7.05
X13.2Y-7.15
X13.2Y-7.25
X13.2Y-7.35
X13.2185Y-4.9303
X13.2185Y-6.2693
X13.2185Y-6.4067
X13.2433Y-7.5075
X13.2453Y-2.7354
X13.4685Y-4.9303
X13.4685Y-6.4067
X13.4933Y-7.5075
X13.4953Y-2.7354
X13.5Y-2.9
X13.5Y-3.0
X13.5Y-3.1
X13.5Y-3.2
X13.5Y-3.3
X13.5Y-3.4
X13.5Y-3.5
X13.5Y-4.15
X13.5Y-4.25
X13.5Y-4.35
X13.5Y-4.45
X13.5Y-4.55
X13.5Y-4.65
X13.5Y-4.75
X13.5Y-5.4
X13.5Y-5.5
X13.5Y-5.6
X13.5Y-5.7
X13.5Y-5.8
X13.5Y-5.9
X13.5Y-6.0
X13.5Y-6.65
X13.5Y-6.75
X13.5Y-6.85
X13.5Y-6.95
X13.5Y-7.05
X13.5Y-7.15
X13.5Y-7.25
X13.5Y-7.35
T3
X4.2965Y-2.8559
X4.4933Y-2.8559
X4.5524Y-3.2319
X4.7492Y-3.2319
T4
X5.2461Y-7.0327
X5.4961Y-7.0327
X5.7339Y-6.122
X5.7339Y-6.322
X5.8079Y-6.222
X6.9087Y-6.222
X6.9827Y-6.122
X6.9827Y-6.322
T5
X10.7055Y-3.3217
T6
X10.7055Y-2.9617
T7
X6.3583Y-6.222
X6.3583Y-6.222
X6.3583Y-6.222
T0
M30
