%TF.GenerationSoftware,KiCad,Pcbnew,7.0.6*%
%TF.CreationDate,2023-07-18T08:51:46+02:00*%
%TF.ProjectId,k-1008-visable-memory,6b2d3130-3038-42d7-9669-7361626c652d,rev?*%
%TF.SameCoordinates,Original*%
%TF.FileFunction,Soldermask,Top*%
%TF.FilePolarity,Negative*%
%FSLAX46Y46*%
G04 Gerber Fmt 4.6, Leading zero omitted, Abs format (unit mm)*
G04 Created by KiCad (PCBNEW 7.0.6) date 2023-07-18 08:51:46*
%MOMM*%
%LPD*%
G01*
G04 APERTURE LIST*
G04 Aperture macros list*
%AMRoundRect*
0 Rectangle with rounded corners*
0 $1 Rounding radius*
0 $2 $3 $4 $5 $6 $7 $8 $9 X,Y pos of 4 corners*
0 Add a 4 corners polygon primitive as box body*
4,1,4,$2,$3,$4,$5,$6,$7,$8,$9,$2,$3,0*
0 Add four circle primitives for the rounded corners*
1,1,$1+$1,$2,$3*
1,1,$1+$1,$4,$5*
1,1,$1+$1,$6,$7*
1,1,$1+$1,$8,$9*
0 Add four rect primitives between the rounded corners*
20,1,$1+$1,$2,$3,$4,$5,0*
20,1,$1+$1,$4,$5,$6,$7,0*
20,1,$1+$1,$6,$7,$8,$9,0*
20,1,$1+$1,$8,$9,$2,$3,0*%
G04 Aperture macros list end*
%ADD10C,1.100000*%
%ADD11C,1.100001*%
%ADD12C,1.200000*%
%ADD13C,1.500000*%
%ADD14C,3.600000*%
%ADD15C,2.000000*%
%ADD16C,1.400000*%
%ADD17C,0.120000*%
%ADD18C,1.800000*%
%ADD19RoundRect,0.600000X-1.000000X0.000000X1.000000X0.000000X1.000000X0.000000X-1.000000X0.000000X0*%
%ADD20C,2.000000*%
%ADD21RoundRect,0.600000X0.000000X-1.000000X0.000000X1.000000X0.000000X1.000000X0.000000X-1.000000X0*%
%ADD22C,1.600000*%
%ADD23C,2.400000*%
%ADD24C,6.500000*%
%ADD25C,3.500000*%
%ADD26O,3.500000X3.500000*%
%ADD27C,2.200000*%
G04 APERTURE END LIST*
D10*
X125570000Y-97190000D02*
G75*
G03*
X125570000Y-97190000I-550000J0D01*
G01*
X325260000Y-125200000D02*
G75*
G03*
X325260000Y-125200000I-550000J0D01*
G01*
X115320000Y-169770000D02*
G75*
G03*
X115320000Y-169770000I-550000J0D01*
G01*
X158560000Y-166570000D02*
G75*
G03*
X158560000Y-166570000I-550000J0D01*
G01*
X230650000Y-148800000D02*
G75*
G03*
X230650000Y-148800000I-550000J0D01*
G01*
X90030000Y-70240000D02*
G75*
G03*
X90030000Y-70240000I-550000J0D01*
G01*
X99540000Y-100430000D02*
G75*
G03*
X99540000Y-100430000I-550000J0D01*
G01*
X231520000Y-139180000D02*
G75*
G03*
X231520000Y-139180000I-550000J0D01*
G01*
X313500000Y-149300000D02*
G75*
G03*
X313500000Y-149300000I-550000J0D01*
G01*
X196790000Y-166600000D02*
G75*
G03*
X196790000Y-166600000I-550000J0D01*
G01*
X176860000Y-174940000D02*
G75*
G03*
X176860000Y-174940000I-550000J0D01*
G01*
X125000000Y-185100000D02*
G75*
G03*
X125000000Y-185100000I-550000J0D01*
G01*
X165630000Y-139180000D02*
G75*
G03*
X165630000Y-139180000I-550000J0D01*
G01*
X280310000Y-163340000D02*
G75*
G03*
X280310000Y-163340000I-550000J0D01*
G01*
X209300000Y-167820000D02*
G75*
G03*
X209300000Y-167820000I-550000J0D01*
G01*
X99540000Y-77640000D02*
G75*
G03*
X99540000Y-77640000I-550000J0D01*
G01*
X325960000Y-154400000D02*
G75*
G03*
X325960000Y-154400000I-550000J0D01*
G01*
X234390000Y-154740000D02*
G75*
G03*
X234390000Y-154740000I-550000J0D01*
G01*
X130670000Y-144390000D02*
G75*
G03*
X130670000Y-144390000I-550000J0D01*
G01*
X211770000Y-169210000D02*
G75*
G03*
X211770000Y-169210000I-550000J0D01*
G01*
X211370000Y-73940000D02*
G75*
G03*
X211370000Y-73940000I-550000J0D01*
G01*
X293090000Y-92190000D02*
G75*
G03*
X293090000Y-92190000I-550000J0D01*
G01*
X121240000Y-186560000D02*
G75*
G03*
X121240000Y-186560000I-550000J0D01*
G01*
X155990000Y-192100000D02*
G75*
G03*
X155990000Y-192100000I-550000J0D01*
G01*
X265730000Y-143630000D02*
G75*
G03*
X265730000Y-143630000I-550000J0D01*
G01*
X107720000Y-169270000D02*
G75*
G03*
X107720000Y-169270000I-550000J0D01*
G01*
X128010000Y-139450000D02*
G75*
G03*
X128010000Y-139450000I-550000J0D01*
G01*
X160050000Y-141870000D02*
G75*
G03*
X160050000Y-141870000I-550000J0D01*
G01*
X343670000Y-122650000D02*
G75*
G03*
X343670000Y-122650000I-550000J0D01*
G01*
X292990000Y-167170000D02*
G75*
G03*
X292990000Y-167170000I-550000J0D01*
G01*
X229190000Y-164040000D02*
G75*
G03*
X229190000Y-164040000I-550000J0D01*
G01*
X84860000Y-191990000D02*
G75*
G03*
X84860000Y-191990000I-550000J0D01*
G01*
X116410000Y-98760000D02*
G75*
G03*
X116410000Y-98760000I-550000J0D01*
G01*
X145330000Y-73940000D02*
G75*
G03*
X145330000Y-73940000I-550000J0D01*
G01*
X102490000Y-159090000D02*
G75*
G03*
X102490000Y-159090000I-550000J0D01*
G01*
X244620000Y-147530000D02*
G75*
G03*
X244620000Y-147530000I-550000J0D01*
G01*
X93800000Y-189570000D02*
G75*
G03*
X93800000Y-189570000I-550000J0D01*
G01*
X153520000Y-185060000D02*
G75*
G03*
X153520000Y-185060000I-550000J0D01*
G01*
X294980000Y-165890000D02*
G75*
G03*
X294980000Y-165890000I-550000J0D01*
G01*
X229040000Y-186840000D02*
G75*
G03*
X229040000Y-186840000I-550000J0D01*
G01*
X272230000Y-188690000D02*
G75*
G03*
X272230000Y-188690000I-550000J0D01*
G01*
X112780000Y-169770000D02*
G75*
G03*
X112780000Y-169770000I-550000J0D01*
G01*
X227050000Y-107260000D02*
G75*
G03*
X227050000Y-107260000I-550000J0D01*
G01*
X174220000Y-174640000D02*
G75*
G03*
X174220000Y-174640000I-550000J0D01*
G01*
X300430000Y-103040000D02*
G75*
G03*
X300430000Y-103040000I-550000J0D01*
G01*
X268900000Y-157000000D02*
G75*
G03*
X268900000Y-157000000I-550000J0D01*
G01*
X198500000Y-139180000D02*
G75*
G03*
X198500000Y-139180000I-550000J0D01*
G01*
X84180000Y-111600000D02*
G75*
G03*
X84180000Y-111600000I-550000J0D01*
G01*
X154550000Y-171140000D02*
G75*
G03*
X154550000Y-171140000I-550000J0D01*
G01*
X102490000Y-161630000D02*
G75*
G03*
X102490000Y-161630000I-550000J0D01*
G01*
X310750000Y-69480000D02*
G75*
G03*
X310750000Y-69480000I-550000J0D01*
G01*
X125300000Y-104110000D02*
G75*
G03*
X125300000Y-104110000I-550000J0D01*
G01*
X90080000Y-189570000D02*
G75*
G03*
X90080000Y-189570000I-550000J0D01*
G01*
X267430000Y-189730000D02*
G75*
G03*
X267430000Y-189730000I-550000J0D01*
G01*
X184980000Y-143170000D02*
G75*
G03*
X184980000Y-143170000I-550000J0D01*
G01*
X156990000Y-140560000D02*
G75*
G03*
X156990000Y-140560000I-550000J0D01*
G01*
X117860000Y-169770000D02*
G75*
G03*
X117860000Y-169770000I-550000J0D01*
G01*
X164020000Y-174150000D02*
G75*
G03*
X164020000Y-174150000I-550000J0D01*
G01*
X178240000Y-180000000D02*
G75*
G03*
X178240000Y-180000000I-550000J0D01*
G01*
X161050000Y-107260000D02*
G75*
G03*
X161050000Y-107260000I-550000J0D01*
G01*
X86880000Y-187740000D02*
G75*
G03*
X86880000Y-187740000I-550000J0D01*
G01*
X186290000Y-150210000D02*
G75*
G03*
X186290000Y-150210000I-550000J0D01*
G01*
X241180000Y-191770000D02*
G75*
G03*
X241180000Y-191770000I-550000J0D01*
G01*
X175570000Y-174640000D02*
G75*
G03*
X175570000Y-174640000I-550000J0D01*
G01*
X178350000Y-73940000D02*
G75*
G03*
X178350000Y-73940000I-550000J0D01*
G01*
X233350000Y-152670000D02*
G75*
G03*
X233350000Y-152670000I-550000J0D01*
G01*
X232060000Y-150710000D02*
G75*
G03*
X232060000Y-150710000I-550000J0D01*
G01*
X90920000Y-99200000D02*
G75*
G03*
X90920000Y-99200000I-550000J0D01*
G01*
X330410000Y-121450000D02*
G75*
G03*
X330410000Y-121450000I-550000J0D01*
G01*
X187120000Y-141480000D02*
G75*
G03*
X187120000Y-141480000I-550000J0D01*
G01*
X110690000Y-83620000D02*
G75*
G03*
X110690000Y-83620000I-550000J0D01*
G01*
X190140000Y-148770000D02*
G75*
G03*
X190140000Y-148770000I-550000J0D01*
G01*
X97700000Y-189570000D02*
G75*
G03*
X97700000Y-189570000I-550000J0D01*
G01*
X262000000Y-81390000D02*
G75*
G03*
X262000000Y-81390000I-550000J0D01*
G01*
X312230000Y-157000000D02*
G75*
G03*
X312230000Y-157000000I-550000J0D01*
G01*
X87980000Y-185210000D02*
G75*
G03*
X87980000Y-185210000I-550000J0D01*
G01*
X199300000Y-89860000D02*
G75*
G03*
X199300000Y-89860000I-550000J0D01*
G01*
X116410000Y-124710000D02*
G75*
G03*
X116410000Y-124710000I-550000J0D01*
G01*
X309030000Y-133500000D02*
G75*
G03*
X309030000Y-133500000I-550000J0D01*
G01*
X312300000Y-81710000D02*
G75*
G03*
X312300000Y-81710000I-550000J0D01*
G01*
X125580000Y-132910000D02*
G75*
G03*
X125580000Y-132910000I-550000J0D01*
G01*
X104440000Y-155890000D02*
G75*
G03*
X104440000Y-155890000I-550000J0D01*
G01*
X154430000Y-161100000D02*
G75*
G03*
X154430000Y-161100000I-550000J0D01*
G01*
X125730000Y-129620000D02*
G75*
G03*
X125730000Y-129620000I-550000J0D01*
G01*
X158530000Y-192100000D02*
G75*
G03*
X158530000Y-192100000I-550000J0D01*
G01*
X88470000Y-117200000D02*
G75*
G03*
X88470000Y-117200000I-550000J0D01*
G01*
X102180000Y-189570000D02*
G75*
G03*
X102180000Y-189570000I-550000J0D01*
G01*
X328560000Y-79640000D02*
G75*
G03*
X328560000Y-79640000I-550000J0D01*
G01*
X113950000Y-188860000D02*
G75*
G03*
X113950000Y-188860000I-550000J0D01*
G01*
X117260000Y-188210000D02*
G75*
G03*
X117260000Y-188210000I-550000J0D01*
G01*
X115380000Y-109550000D02*
G75*
G03*
X115380000Y-109550000I-550000J0D01*
G01*
X116410000Y-127350000D02*
G75*
G03*
X116410000Y-127350000I-550000J0D01*
G01*
X297330000Y-84660000D02*
G75*
G03*
X297330000Y-84660000I-550000J0D01*
G01*
X91520000Y-67890000D02*
G75*
G03*
X91520000Y-67890000I-550000J0D01*
G01*
X81650000Y-87870000D02*
G75*
G03*
X81650000Y-87870000I-550000J0D01*
G01*
X133260000Y-89860000D02*
G75*
G03*
X133260000Y-89860000I-550000J0D01*
G01*
X275430000Y-154630000D02*
G75*
G03*
X275430000Y-154630000I-550000J0D01*
G01*
X312590000Y-174670000D02*
G75*
G03*
X312590000Y-174670000I-550000J0D01*
G01*
X182670000Y-144450000D02*
G75*
G03*
X182670000Y-144450000I-550000J0D01*
G01*
X125570000Y-100790000D02*
G75*
G03*
X125570000Y-100790000I-550000J0D01*
G01*
X162530000Y-191360000D02*
G75*
G03*
X162530000Y-191360000I-550000J0D01*
G01*
X79530000Y-85040000D02*
G75*
G03*
X79530000Y-85040000I-550000J0D01*
G01*
X180600000Y-145710000D02*
G75*
G03*
X180600000Y-145710000I-550000J0D01*
G01*
X88400000Y-103260000D02*
G75*
G03*
X88400000Y-103260000I-550000J0D01*
G01*
X187550000Y-159400000D02*
G75*
G03*
X187550000Y-159400000I-550000J0D01*
G01*
X102490000Y-153850000D02*
G75*
G03*
X102490000Y-153850000I-550000J0D01*
G01*
X238320000Y-146240000D02*
G75*
G03*
X238320000Y-146240000I-550000J0D01*
G01*
X144610000Y-143230000D02*
G75*
G03*
X144610000Y-143230000I-550000J0D01*
G01*
X232320000Y-89860000D02*
G75*
G03*
X232320000Y-89860000I-550000J0D01*
G01*
X166280000Y-89850000D02*
G75*
G03*
X166280000Y-89850000I-550000J0D01*
G01*
X277760000Y-172120000D02*
G75*
G03*
X277760000Y-172120000I-550000J0D01*
G01*
X125730000Y-136140000D02*
G75*
G03*
X125730000Y-136140000I-550000J0D01*
G01*
X164020000Y-172920000D02*
G75*
G03*
X164020000Y-172920000I-550000J0D01*
G01*
X275430000Y-162060000D02*
G75*
G03*
X275430000Y-162060000I-550000J0D01*
G01*
X149770000Y-89860000D02*
G75*
G03*
X149770000Y-89860000I-550000J0D01*
G01*
X132970000Y-182460000D02*
G75*
G03*
X132970000Y-182460000I-550000J0D01*
G01*
X194040000Y-107260000D02*
G75*
G03*
X194040000Y-107260000I-550000J0D01*
G01*
X293880000Y-136730000D02*
G75*
G03*
X293880000Y-136730000I-550000J0D01*
G01*
X248830000Y-89860000D02*
G75*
G03*
X248830000Y-89860000I-550000J0D01*
G01*
X238040000Y-185090000D02*
G75*
G03*
X238040000Y-185090000I-550000J0D01*
G01*
X178060000Y-146860000D02*
G75*
G03*
X178060000Y-146860000I-550000J0D01*
G01*
X102490000Y-164170000D02*
G75*
G03*
X102490000Y-164170000I-550000J0D01*
G01*
X195260000Y-147670000D02*
G75*
G03*
X195260000Y-147670000I-550000J0D01*
G01*
X215810000Y-89860000D02*
G75*
G03*
X215810000Y-89860000I-550000J0D01*
G01*
X140970000Y-140610000D02*
G75*
G03*
X140970000Y-140610000I-550000J0D01*
G01*
X150910000Y-192100000D02*
G75*
G03*
X150910000Y-192100000I-550000J0D01*
G01*
X326530000Y-127820000D02*
G75*
G03*
X326530000Y-127820000I-550000J0D01*
G01*
X210600000Y-159400000D02*
G75*
G03*
X210600000Y-159400000I-550000J0D01*
G01*
X276460000Y-142630000D02*
G75*
G03*
X276460000Y-142630000I-550000J0D01*
G01*
X300430000Y-166430000D02*
G75*
G03*
X300430000Y-166430000I-550000J0D01*
G01*
X312750000Y-145150000D02*
G75*
G03*
X312750000Y-145150000I-550000J0D01*
G01*
X325390000Y-101790000D02*
G75*
G03*
X325390000Y-101790000I-550000J0D01*
G01*
X270920000Y-152070000D02*
G75*
G03*
X270920000Y-152070000I-550000J0D01*
G01*
X182790000Y-89860000D02*
G75*
G03*
X182790000Y-89860000I-550000J0D01*
G01*
X311270000Y-179740000D02*
G75*
G03*
X311270000Y-179740000I-550000J0D01*
G01*
X279520000Y-150850000D02*
G75*
G03*
X279520000Y-150850000I-550000J0D01*
G01*
X248200000Y-183050000D02*
G75*
G03*
X248200000Y-183050000I-550000J0D01*
G01*
X180060000Y-178030000D02*
G75*
G03*
X180060000Y-178030000I-550000J0D01*
G01*
X246600000Y-73940000D02*
G75*
G03*
X246600000Y-73940000I-550000J0D01*
G01*
X129330000Y-183690000D02*
G75*
G03*
X129330000Y-183690000I-550000J0D01*
G01*
X99540000Y-123390000D02*
G75*
G03*
X99540000Y-123390000I-550000J0D01*
G01*
%TO.C,C23*%
X132262500Y-108170000D02*
G75*
G03*
X132262500Y-108170000I-550000J0D01*
G01*
X138612500Y-108170000D02*
G75*
G03*
X138612500Y-108170000I-550000J0D01*
G01*
%TO.C,C18*%
X336300000Y-162730000D02*
G75*
G03*
X336300000Y-162730000I-550000J0D01*
G01*
X342650000Y-162730000D02*
G75*
G03*
X342650000Y-162730000I-550000J0D01*
G01*
%TO.C,D4*%
X284080000Y-94710000D02*
G75*
G03*
X284080000Y-94710000I-550000J0D01*
G01*
X271380000Y-94710000D02*
G75*
G03*
X271380000Y-94710000I-550000J0D01*
G01*
%TO.C,C35*%
X97230000Y-72280000D02*
G75*
G03*
X97230000Y-72280000I-550000J0D01*
G01*
X103580000Y-72280000D02*
G75*
G03*
X103580000Y-72280000I-550000J0D01*
G01*
%TO.C,U17*%
G36*
X315500000Y-136160000D02*
G01*
X319500000Y-136160000D01*
X319500000Y-153400000D01*
X315500000Y-153400000D01*
X315500000Y-136160000D01*
G37*
G36*
X323120000Y-136160000D02*
G01*
X327120000Y-136160000D01*
X327120000Y-153400000D01*
X323120000Y-153400000D01*
X323120000Y-136160000D01*
G37*
%TO.C,R2*%
X258280000Y-171600000D02*
G75*
G03*
X258280000Y-171600000I-550000J0D01*
G01*
X258280000Y-184300000D02*
G75*
G03*
X258280000Y-184300000I-550000J0D01*
G01*
%TO.C,R8*%
X273390000Y-108730000D02*
G75*
G03*
X273390000Y-108730000I-550000J0D01*
G01*
X273390000Y-121430000D02*
G75*
G03*
X273390000Y-121430000I-550000J0D01*
G01*
%TO.C,C38*%
X173963973Y-76600000D02*
G75*
G03*
X173963973Y-76600000I-550000J0D01*
G01*
D11*
X170321763Y-71398385D02*
G75*
G03*
X170321763Y-71398385I-550000J0D01*
G01*
%TO.C,U24*%
G36*
X175800000Y-110760000D02*
G01*
X179800000Y-110760000D01*
X179800000Y-138160000D01*
X175800000Y-138160000D01*
X175800000Y-110760000D01*
G37*
G36*
X185960000Y-110760000D02*
G01*
X189960000Y-110760000D01*
X189960000Y-138160000D01*
X185960000Y-138160000D01*
X185960000Y-110760000D01*
G37*
%TO.C,C55*%
D12*
X116230000Y-82090000D02*
G75*
G03*
X116230000Y-82090000I-600000J0D01*
G01*
X121230000Y-82090000D02*
G75*
G03*
X121230000Y-82090000I-600000J0D01*
G01*
%TO.C,U47*%
G36*
X333280000Y-72660000D02*
G01*
X337280000Y-72660000D01*
X337280000Y-89900000D01*
X333280000Y-89900000D01*
X333280000Y-72660000D01*
G37*
G36*
X340900000Y-72660000D02*
G01*
X344900000Y-72660000D01*
X344900000Y-89900000D01*
X340900000Y-89900000D01*
X340900000Y-72660000D01*
G37*
%TO.C,U33*%
G36*
X94520000Y-98060000D02*
G01*
X98520000Y-98060000D01*
X98520000Y-117840000D01*
X94520000Y-117840000D01*
X94520000Y-98060000D01*
G37*
G36*
X102140000Y-98060000D02*
G01*
X106140000Y-98060000D01*
X106140000Y-117840000D01*
X102140000Y-117840000D01*
X102140000Y-98060000D01*
G37*
%TO.C,U9*%
G36*
X235220000Y-164560000D02*
G01*
X255000000Y-164560000D01*
X255000000Y-160560000D01*
X235220000Y-160560000D01*
X235220000Y-164560000D01*
G37*
G36*
X235220000Y-156940000D02*
G01*
X255000000Y-156940000D01*
X255000000Y-152940000D01*
X235220000Y-152940000D01*
X235220000Y-156940000D01*
G37*
%TO.C,C42*%
D10*
X240000000Y-76600000D02*
G75*
G03*
X240000000Y-76600000I-550000J0D01*
G01*
D11*
X236357790Y-71398385D02*
G75*
G03*
X236357790Y-71398385I-550000J0D01*
G01*
%TO.C,R3*%
D10*
X261440000Y-169740000D02*
G75*
G03*
X261440000Y-169740000I-550000J0D01*
G01*
X261440000Y-157040000D02*
G75*
G03*
X261440000Y-157040000I-550000J0D01*
G01*
%TO.C,R17*%
X293600000Y-82150000D02*
G75*
G03*
X293600000Y-82150000I-550000J0D01*
G01*
X293600000Y-70090000D02*
G75*
G03*
X293600000Y-70090000I-550000J0D01*
G01*
%TO.C,C34*%
X77680000Y-72280000D02*
G75*
G03*
X77680000Y-72280000I-550000J0D01*
G01*
X84030000Y-72280000D02*
G75*
G03*
X84030000Y-72280000I-550000J0D01*
G01*
%TO.C,S1*%
G36*
X119920000Y-150130000D02*
G01*
X123920000Y-150130000D01*
X123920000Y-169910000D01*
X119920000Y-169910000D01*
X119920000Y-150130000D01*
G37*
G36*
X127540000Y-150130000D02*
G01*
X131540000Y-150130000D01*
X131540000Y-169910000D01*
X127540000Y-169910000D01*
X127540000Y-150130000D01*
G37*
%TO.C,R10*%
X323560000Y-99830000D02*
G75*
G03*
X323560000Y-99830000I-550000J0D01*
G01*
X310860000Y-99830000D02*
G75*
G03*
X310860000Y-99830000I-550000J0D01*
G01*
%TO.C,Q6*%
X267840000Y-108040000D02*
G75*
G03*
X267840000Y-108040000I-550000J0D01*
G01*
X269110000Y-109590000D02*
G75*
G03*
X269110000Y-109590000I-550000J0D01*
G01*
X270380000Y-108040000D02*
G75*
G03*
X270380000Y-108040000I-550000J0D01*
G01*
%TO.C,U44*%
G36*
X279940000Y-72660000D02*
G01*
X283940000Y-72660000D01*
X283940000Y-89900000D01*
X279940000Y-89900000D01*
X279940000Y-72660000D01*
G37*
G36*
X287560000Y-72660000D02*
G01*
X291560000Y-72660000D01*
X291560000Y-89900000D01*
X287560000Y-89900000D01*
X287560000Y-72660000D01*
G37*
%TO.C,U2*%
G36*
X107220000Y-150130000D02*
G01*
X111220000Y-150130000D01*
X111220000Y-167370000D01*
X107220000Y-167370000D01*
X107220000Y-150130000D01*
G37*
G36*
X114840000Y-150130000D02*
G01*
X118840000Y-150130000D01*
X118840000Y-167370000D01*
X114840000Y-167370000D01*
X114840000Y-150130000D01*
G37*
%TO.C,C46*%
X282810000Y-69480000D02*
G75*
G03*
X282810000Y-69480000I-550000J0D01*
G01*
X289160000Y-69480000D02*
G75*
G03*
X289160000Y-69480000I-550000J0D01*
G01*
%TO.C,U41*%
G36*
X208820000Y-77740000D02*
G01*
X212820000Y-77740000D01*
X212820000Y-105140000D01*
X208820000Y-105140000D01*
X208820000Y-77740000D01*
G37*
G36*
X218980000Y-77740000D02*
G01*
X222980000Y-77740000D01*
X222980000Y-105140000D01*
X218980000Y-105140000D01*
X218980000Y-77740000D01*
G37*
%TO.C,U21*%
G36*
X126270000Y-110760000D02*
G01*
X130270000Y-110760000D01*
X130270000Y-138160000D01*
X126270000Y-138160000D01*
X126270000Y-110760000D01*
G37*
G36*
X136430000Y-110760000D02*
G01*
X140430000Y-110760000D01*
X140430000Y-138160000D01*
X136430000Y-138160000D01*
X136430000Y-110760000D01*
G37*
%TO.C,U12*%
G36*
X297720000Y-167910000D02*
G01*
X301720000Y-167910000D01*
X301720000Y-185150000D01*
X297720000Y-185150000D01*
X297720000Y-167910000D01*
G37*
G36*
X305340000Y-167910000D02*
G01*
X309340000Y-167910000D01*
X309340000Y-185150000D01*
X305340000Y-185150000D01*
X305340000Y-167910000D01*
G37*
%TO.C,U11*%
G36*
X279940000Y-167910000D02*
G01*
X283940000Y-167910000D01*
X283940000Y-185150000D01*
X279940000Y-185150000D01*
X279940000Y-167910000D01*
G37*
G36*
X287560000Y-167910000D02*
G01*
X291560000Y-167910000D01*
X291560000Y-185150000D01*
X287560000Y-185150000D01*
X287560000Y-167910000D01*
G37*
%TO.C,C24*%
X148800000Y-108160000D02*
G75*
G03*
X148800000Y-108160000I-550000J0D01*
G01*
X155150000Y-108160000D02*
G75*
G03*
X155150000Y-108160000I-550000J0D01*
G01*
%TO.C,U23*%
G36*
X159290000Y-110760000D02*
G01*
X163290000Y-110760000D01*
X163290000Y-138160000D01*
X159290000Y-138160000D01*
X159290000Y-110760000D01*
G37*
G36*
X169450000Y-110760000D02*
G01*
X173450000Y-110760000D01*
X173450000Y-138160000D01*
X169450000Y-138160000D01*
X169450000Y-110760000D01*
G37*
%TO.C,C50*%
X273390000Y-136720000D02*
G75*
G03*
X273390000Y-136720000I-550000J0D01*
G01*
X273390000Y-130370000D02*
G75*
G03*
X273390000Y-130370000I-550000J0D01*
G01*
%TO.C,U15*%
G36*
X279940000Y-136160000D02*
G01*
X283940000Y-136160000D01*
X283940000Y-153400000D01*
X279940000Y-153400000D01*
X279940000Y-136160000D01*
G37*
G36*
X287560000Y-136160000D02*
G01*
X291560000Y-136160000D01*
X291560000Y-153400000D01*
X287560000Y-153400000D01*
X287560000Y-136160000D01*
G37*
%TO.C,U25*%
G36*
X192310000Y-110760000D02*
G01*
X196310000Y-110760000D01*
X196310000Y-138160000D01*
X192310000Y-138160000D01*
X192310000Y-110760000D01*
G37*
G36*
X202470000Y-110760000D02*
G01*
X206470000Y-110760000D01*
X206470000Y-138160000D01*
X202470000Y-138160000D01*
X202470000Y-110760000D01*
G37*
%TO.C,U8*%
G36*
X235220000Y-182340000D02*
G01*
X255000000Y-182340000D01*
X255000000Y-178340000D01*
X235220000Y-178340000D01*
X235220000Y-182340000D01*
G37*
G36*
X235220000Y-174720000D02*
G01*
X255000000Y-174720000D01*
X255000000Y-170720000D01*
X235220000Y-170720000D01*
X235220000Y-174720000D01*
G37*
%TO.C,C15*%
X258850000Y-162100000D02*
G75*
G03*
X258850000Y-162100000I-550000J0D01*
G01*
X258850000Y-155750000D02*
G75*
G03*
X258850000Y-155750000I-550000J0D01*
G01*
%TO.C,C13*%
X135630000Y-147550000D02*
G75*
G03*
X135630000Y-147550000I-550000J0D01*
G01*
X141980000Y-147550000D02*
G75*
G03*
X141980000Y-147550000I-550000J0D01*
G01*
%TO.C,R6*%
X323600000Y-159240000D02*
G75*
G03*
X323600000Y-159240000I-550000J0D01*
G01*
X336300000Y-159240000D02*
G75*
G03*
X336300000Y-159240000I-550000J0D01*
G01*
%TO.C,C41*%
X223500000Y-76600000D02*
G75*
G03*
X223500000Y-76600000I-550000J0D01*
G01*
D11*
X219857790Y-71398385D02*
G75*
G03*
X219857790Y-71398385I-550000J0D01*
G01*
%TO.C,U7*%
G36*
X207280000Y-164560000D02*
G01*
X227060000Y-164560000D01*
X227060000Y-160560000D01*
X207280000Y-160560000D01*
X207280000Y-164560000D01*
G37*
G36*
X207280000Y-156940000D02*
G01*
X227060000Y-156940000D01*
X227060000Y-152940000D01*
X207280000Y-152940000D01*
X207280000Y-156940000D01*
G37*
%TO.C,C1*%
D13*
X140350000Y-178630000D02*
G75*
G03*
X140350000Y-178630000I-750000J0D01*
G01*
X134000000Y-178630000D02*
G75*
G03*
X134000000Y-178630000I-750000J0D01*
G01*
%TO.C,D3*%
D10*
X284080000Y-97250000D02*
G75*
G03*
X284080000Y-97250000I-550000J0D01*
G01*
X271380000Y-97250000D02*
G75*
G03*
X271380000Y-97250000I-550000J0D01*
G01*
%TO.C,J1*%
D14*
X273720000Y-75226000D02*
G75*
G03*
X273720000Y-75226000I-1800000J0D01*
G01*
D15*
X272920000Y-84370000D02*
G75*
G03*
X272920000Y-84370000I-1000000J0D01*
G01*
%TO.C,U14*%
G36*
X333280000Y-167910000D02*
G01*
X337280000Y-167910000D01*
X337280000Y-187690000D01*
X333280000Y-187690000D01*
X333280000Y-167910000D01*
G37*
G36*
X340900000Y-167910000D02*
G01*
X344900000Y-167910000D01*
X344900000Y-187690000D01*
X340900000Y-187690000D01*
X340900000Y-167910000D01*
G37*
%TO.C,U45*%
G36*
X297720000Y-72660000D02*
G01*
X301720000Y-72660000D01*
X301720000Y-92440000D01*
X297720000Y-92440000D01*
X297720000Y-72660000D01*
G37*
G36*
X305340000Y-72660000D02*
G01*
X309340000Y-72660000D01*
X309340000Y-92440000D01*
X305340000Y-92440000D01*
X305340000Y-72660000D01*
G37*
%TO.C,C39*%
D10*
X190477946Y-76600000D02*
G75*
G03*
X190477946Y-76600000I-550000J0D01*
G01*
D11*
X186835736Y-71398385D02*
G75*
G03*
X186835736Y-71398385I-550000J0D01*
G01*
%TO.C,U20*%
G36*
X94520000Y-120920000D02*
G01*
X98520000Y-120920000D01*
X98520000Y-140700000D01*
X94520000Y-140700000D01*
X94520000Y-120920000D01*
G37*
G36*
X102140000Y-120920000D02*
G01*
X106140000Y-120920000D01*
X106140000Y-140700000D01*
X102140000Y-140700000D01*
X102140000Y-120920000D01*
G37*
%TO.C,C5*%
D10*
X261450000Y-172150000D02*
G75*
G03*
X261450000Y-172150000I-550000J0D01*
G01*
X261450000Y-178500000D02*
G75*
G03*
X261450000Y-178500000I-550000J0D01*
G01*
%TO.C,R7*%
X260690000Y-125290000D02*
G75*
G03*
X260690000Y-125290000I-550000J0D01*
G01*
X273390000Y-125290000D02*
G75*
G03*
X273390000Y-125290000I-550000J0D01*
G01*
%TO.C,C12*%
X96890000Y-143040000D02*
G75*
G03*
X96890000Y-143040000I-550000J0D01*
G01*
X103240000Y-143040000D02*
G75*
G03*
X103240000Y-143040000I-550000J0D01*
G01*
%TO.C,U38*%
G36*
X159290000Y-77740000D02*
G01*
X163290000Y-77740000D01*
X163290000Y-105140000D01*
X159290000Y-105140000D01*
X159290000Y-77740000D01*
G37*
G36*
X169450000Y-77740000D02*
G01*
X173450000Y-77740000D01*
X173450000Y-105140000D01*
X169450000Y-105140000D01*
X169450000Y-77740000D01*
G37*
%TO.C,C4*%
X232780000Y-179800000D02*
G75*
G03*
X232780000Y-179800000I-550000J0D01*
G01*
X232780000Y-173450000D02*
G75*
G03*
X232780000Y-173450000I-550000J0D01*
G01*
%TO.C,Q2*%
D16*
X178060000Y-160580000D02*
G75*
G03*
X178060000Y-160580000I-700000J0D01*
G01*
X176180000Y-158040000D02*
G75*
G03*
X176180000Y-158040000I-700000J0D01*
G01*
X178060000Y-155500000D02*
G75*
G03*
X178060000Y-155500000I-700000J0D01*
G01*
%TO.C,C9*%
D10*
X318630000Y-188690000D02*
G75*
G03*
X318630000Y-188690000I-550000J0D01*
G01*
X325610000Y-188690000D02*
G75*
G03*
X325610000Y-188690000I-550000J0D01*
G01*
%TO.C,C36*%
X140950000Y-76600000D02*
G75*
G03*
X140950000Y-76600000I-550000J0D01*
G01*
D11*
X137307790Y-71398385D02*
G75*
G03*
X137307790Y-71398385I-550000J0D01*
G01*
%TO.C,U4*%
G36*
X181880000Y-182340000D02*
G01*
X199120000Y-182340000D01*
X199120000Y-178340000D01*
X181880000Y-178340000D01*
X181880000Y-182340000D01*
G37*
G36*
X181880000Y-174720000D02*
G01*
X199120000Y-174720000D01*
X199120000Y-170720000D01*
X181880000Y-170720000D01*
X181880000Y-174720000D01*
G37*
%TO.C,U3*%
G36*
X132620000Y-150130000D02*
G01*
X136620000Y-150130000D01*
X136620000Y-167370000D01*
X132620000Y-167370000D01*
X132620000Y-150130000D01*
G37*
G36*
X140240000Y-150130000D02*
G01*
X144240000Y-150130000D01*
X144240000Y-167370000D01*
X140240000Y-167370000D01*
X140240000Y-150130000D01*
G37*
%TO.C,U1*%
G36*
X74200000Y-146320000D02*
G01*
X78200000Y-146320000D01*
X78200000Y-163560000D01*
X74200000Y-163560000D01*
X74200000Y-146320000D01*
G37*
G36*
X81820000Y-146320000D02*
G01*
X85820000Y-146320000D01*
X85820000Y-163560000D01*
X81820000Y-163560000D01*
X81820000Y-146320000D01*
G37*
%TO.C,U22*%
G36*
X142780000Y-110760000D02*
G01*
X146780000Y-110760000D01*
X146780000Y-138160000D01*
X142780000Y-138160000D01*
X142780000Y-110760000D01*
G37*
G36*
X152940000Y-110760000D02*
G01*
X156940000Y-110760000D01*
X156940000Y-138160000D01*
X152940000Y-138160000D01*
X152940000Y-110760000D01*
G37*
%TO.C,C7*%
D10*
X283640000Y-188690000D02*
G75*
G03*
X283640000Y-188690000I-550000J0D01*
G01*
X289990000Y-188690000D02*
G75*
G03*
X289990000Y-188690000I-550000J0D01*
G01*
%TO.C,C47*%
X301220000Y-69480000D02*
G75*
G03*
X301220000Y-69480000I-550000J0D01*
G01*
X307570000Y-69480000D02*
G75*
G03*
X307570000Y-69480000I-550000J0D01*
G01*
%TO.C,Q3*%
X261060000Y-136660000D02*
G75*
G03*
X261060000Y-136660000I-550000J0D01*
G01*
X262610000Y-135390000D02*
G75*
G03*
X262610000Y-135390000I-550000J0D01*
G01*
X261060000Y-134120000D02*
G75*
G03*
X261060000Y-134120000I-550000J0D01*
G01*
%TO.C,R19*%
X268300000Y-130370000D02*
G75*
G03*
X268300000Y-130370000I-550000J0D01*
G01*
X268300000Y-143070000D02*
G75*
G03*
X268300000Y-143070000I-550000J0D01*
G01*
D17*
%TO.C,J2*%
X80510000Y-200840000D02*
X173750000Y-200840000D01*
X173750000Y-200840000D02*
X173750000Y-193260000D01*
X173750000Y-193260000D02*
X80510000Y-193260000D01*
X80510000Y-193260000D02*
X80510000Y-200840000D01*
G36*
X80510000Y-200840000D02*
G01*
X173750000Y-200840000D01*
X173750000Y-193260000D01*
X80510000Y-193260000D01*
X80510000Y-200840000D01*
G37*
%TO.C,R12*%
D10*
X330860000Y-94480000D02*
G75*
G03*
X330860000Y-94480000I-550000J0D01*
G01*
X318160000Y-94480000D02*
G75*
G03*
X318160000Y-94480000I-550000J0D01*
G01*
%TO.C,C11*%
X77840000Y-143040000D02*
G75*
G03*
X77840000Y-143040000I-550000J0D01*
G01*
X84190000Y-143040000D02*
G75*
G03*
X84190000Y-143040000I-550000J0D01*
G01*
%TO.C,C26*%
X181850000Y-108160000D02*
G75*
G03*
X181850000Y-108160000I-550000J0D01*
G01*
X188200000Y-108160000D02*
G75*
G03*
X188200000Y-108160000I-550000J0D01*
G01*
%TO.C,C54*%
X225970000Y-73940000D02*
G75*
G03*
X225970000Y-73940000I-550000J0D01*
G01*
X231734387Y-76603521D02*
G75*
G03*
X231734387Y-76603521I-550000J0D01*
G01*
%TO.C,U13*%
G36*
X315500000Y-167910000D02*
G01*
X319500000Y-167910000D01*
X319500000Y-185150000D01*
X315500000Y-185150000D01*
X315500000Y-167910000D01*
G37*
G36*
X323120000Y-167910000D02*
G01*
X327120000Y-167910000D01*
X327120000Y-185150000D01*
X323120000Y-185150000D01*
X323120000Y-167910000D01*
G37*
%TO.C,U36*%
G36*
X126270000Y-77740000D02*
G01*
X130270000Y-77740000D01*
X130270000Y-105140000D01*
X126270000Y-105140000D01*
X126270000Y-77740000D01*
G37*
G36*
X136430000Y-77740000D02*
G01*
X140430000Y-77740000D01*
X140430000Y-105140000D01*
X136430000Y-105140000D01*
X136430000Y-77740000D01*
G37*
%TO.C,C30*%
X248070000Y-108160000D02*
G75*
G03*
X248070000Y-108160000I-550000J0D01*
G01*
X254420000Y-108160000D02*
G75*
G03*
X254420000Y-108160000I-550000J0D01*
G01*
%TO.C,C43*%
X256520000Y-76600000D02*
G75*
G03*
X256520000Y-76600000I-550000J0D01*
G01*
D11*
X252877790Y-71398385D02*
G75*
G03*
X252877790Y-71398385I-550000J0D01*
G01*
%TO.C,U28*%
G36*
X241840000Y-110760000D02*
G01*
X245840000Y-110760000D01*
X245840000Y-138160000D01*
X241840000Y-138160000D01*
X241840000Y-110760000D01*
G37*
G36*
X252000000Y-110760000D02*
G01*
X256000000Y-110760000D01*
X256000000Y-138160000D01*
X252000000Y-138160000D01*
X252000000Y-110760000D01*
G37*
%TO.C,U5*%
G36*
X179340000Y-164560000D02*
G01*
X199120000Y-164560000D01*
X199120000Y-160560000D01*
X179340000Y-160560000D01*
X179340000Y-164560000D01*
G37*
G36*
X179340000Y-156940000D02*
G01*
X199120000Y-156940000D01*
X199120000Y-152940000D01*
X179340000Y-152940000D01*
X179340000Y-156940000D01*
G37*
%TO.C,C17*%
D10*
X270420000Y-162100000D02*
G75*
G03*
X270420000Y-162100000I-550000J0D01*
G01*
X264070000Y-162100000D02*
G75*
G03*
X264070000Y-162100000I-550000J0D01*
G01*
%TO.C,R14*%
X266300000Y-95340000D02*
G75*
G03*
X266300000Y-95340000I-550000J0D01*
G01*
X266300000Y-82640000D02*
G75*
G03*
X266300000Y-82640000I-550000J0D01*
G01*
%TO.C,U31*%
G36*
X315500000Y-104410000D02*
G01*
X319500000Y-104410000D01*
X319500000Y-121650000D01*
X315500000Y-121650000D01*
X315500000Y-104410000D01*
G37*
G36*
X323120000Y-104410000D02*
G01*
X327120000Y-104410000D01*
X327120000Y-121650000D01*
X323120000Y-121650000D01*
X323120000Y-104410000D01*
G37*
%TO.C,U43*%
G36*
X241840000Y-77740000D02*
G01*
X245840000Y-77740000D01*
X245840000Y-105140000D01*
X241840000Y-105140000D01*
X241840000Y-77740000D01*
G37*
G36*
X252000000Y-77740000D02*
G01*
X256000000Y-77740000D01*
X256000000Y-105140000D01*
X252000000Y-105140000D01*
X252000000Y-77740000D01*
G37*
%TO.C,U30*%
G36*
X297720000Y-104410000D02*
G01*
X301720000Y-104410000D01*
X301720000Y-124190000D01*
X297720000Y-124190000D01*
X297720000Y-104410000D01*
G37*
G36*
X305340000Y-104410000D02*
G01*
X309340000Y-104410000D01*
X309340000Y-124190000D01*
X305340000Y-124190000D01*
X305340000Y-104410000D01*
G37*
%TO.C,R15*%
X275190000Y-92170000D02*
G75*
G03*
X275190000Y-92170000I-550000J0D01*
G01*
X287890000Y-92170000D02*
G75*
G03*
X287890000Y-92170000I-550000J0D01*
G01*
%TO.C,R13*%
X318160000Y-91940000D02*
G75*
G03*
X318160000Y-91940000I-550000J0D01*
G01*
X330860000Y-91940000D02*
G75*
G03*
X330860000Y-91940000I-550000J0D01*
G01*
%TO.C,U34*%
G36*
X74200000Y-75200000D02*
G01*
X78200000Y-75200000D01*
X78200000Y-92440000D01*
X74200000Y-92440000D01*
X74200000Y-75200000D01*
G37*
G36*
X81820000Y-75200000D02*
G01*
X85820000Y-75200000D01*
X85820000Y-92440000D01*
X81820000Y-92440000D01*
X81820000Y-75200000D01*
G37*
%TO.C,Q4*%
X262010000Y-127630000D02*
G75*
G03*
X262010000Y-127630000I-550000J0D01*
G01*
X260460000Y-128900000D02*
G75*
G03*
X260460000Y-128900000I-550000J0D01*
G01*
X262010000Y-130170000D02*
G75*
G03*
X262010000Y-130170000I-550000J0D01*
G01*
%TO.C,U27*%
G36*
X225330000Y-110760000D02*
G01*
X229330000Y-110760000D01*
X229330000Y-138160000D01*
X225330000Y-138160000D01*
X225330000Y-110760000D01*
G37*
G36*
X235490000Y-110760000D02*
G01*
X239490000Y-110760000D01*
X239490000Y-138160000D01*
X235490000Y-138160000D01*
X235490000Y-110760000D01*
G37*
%TO.C,C25*%
X165320000Y-108160000D02*
G75*
G03*
X165320000Y-108160000I-550000J0D01*
G01*
X171670000Y-108160000D02*
G75*
G03*
X171670000Y-108160000I-550000J0D01*
G01*
%TO.C,U18*%
G36*
X333280000Y-136160000D02*
G01*
X337280000Y-136160000D01*
X337280000Y-153400000D01*
X333280000Y-153400000D01*
X333280000Y-136160000D01*
G37*
G36*
X340900000Y-136160000D02*
G01*
X344900000Y-136160000D01*
X344900000Y-153400000D01*
X340900000Y-153400000D01*
X340900000Y-136160000D01*
G37*
%TO.C,Q5*%
X265770000Y-121430000D02*
G75*
G03*
X265770000Y-121430000I-550000J0D01*
G01*
X267040000Y-122980000D02*
G75*
G03*
X267040000Y-122980000I-550000J0D01*
G01*
X268310000Y-121430000D02*
G75*
G03*
X268310000Y-121430000I-550000J0D01*
G01*
%TO.C,C19*%
X265770000Y-136720000D02*
G75*
G03*
X265770000Y-136720000I-550000J0D01*
G01*
X265770000Y-130370000D02*
G75*
G03*
X265770000Y-130370000I-550000J0D01*
G01*
%TO.C,D2*%
X268840000Y-97250000D02*
G75*
G03*
X268840000Y-97250000I-550000J0D01*
G01*
X268840000Y-84550000D02*
G75*
G03*
X268840000Y-84550000I-550000J0D01*
G01*
%TO.C,C20*%
X273390000Y-127820000D02*
G75*
G03*
X273390000Y-127820000I-550000J0D01*
G01*
X267040000Y-127820000D02*
G75*
G03*
X267040000Y-127820000I-550000J0D01*
G01*
%TO.C,C37*%
X157460000Y-76600000D02*
G75*
G03*
X157460000Y-76600000I-550000J0D01*
G01*
D11*
X153817790Y-71398385D02*
G75*
G03*
X153817790Y-71398385I-550000J0D01*
G01*
%TO.C,C14*%
D10*
X203570000Y-162020000D02*
G75*
G03*
X203570000Y-162020000I-550000J0D01*
G01*
X203570000Y-155670000D02*
G75*
G03*
X203570000Y-155670000I-550000J0D01*
G01*
%TO.C,C49*%
X336980000Y-69480000D02*
G75*
G03*
X336980000Y-69480000I-550000J0D01*
G01*
X343330000Y-69480000D02*
G75*
G03*
X343330000Y-69480000I-550000J0D01*
G01*
%TO.C,C28*%
X214950000Y-108160000D02*
G75*
G03*
X214950000Y-108160000I-550000J0D01*
G01*
X221300000Y-108160000D02*
G75*
G03*
X221300000Y-108160000I-550000J0D01*
G01*
%TO.C,R9*%
X268840000Y-99790000D02*
G75*
G03*
X268840000Y-99790000I-550000J0D01*
G01*
X281540000Y-99790000D02*
G75*
G03*
X281540000Y-99790000I-550000J0D01*
G01*
%TO.C,U37*%
G36*
X142780000Y-77740000D02*
G01*
X146780000Y-77740000D01*
X146780000Y-105140000D01*
X142780000Y-105140000D01*
X142780000Y-77740000D01*
G37*
G36*
X152940000Y-77740000D02*
G01*
X156940000Y-77740000D01*
X156940000Y-105140000D01*
X152940000Y-105140000D01*
X152940000Y-77740000D01*
G37*
%TO.C,C29*%
X231550000Y-108160000D02*
G75*
G03*
X231550000Y-108160000I-550000J0D01*
G01*
X237900000Y-108160000D02*
G75*
G03*
X237900000Y-108160000I-550000J0D01*
G01*
%TO.C,C52*%
X160570000Y-73940000D02*
G75*
G03*
X160570000Y-73940000I-550000J0D01*
G01*
X166334387Y-76603521D02*
G75*
G03*
X166334387Y-76603521I-550000J0D01*
G01*
%TO.C,C27*%
X198420000Y-108160000D02*
G75*
G03*
X198420000Y-108160000I-550000J0D01*
G01*
X204770000Y-108160000D02*
G75*
G03*
X204770000Y-108160000I-550000J0D01*
G01*
%TO.C,C16*%
X255460000Y-141110000D02*
G75*
G03*
X255460000Y-141110000I-550000J0D01*
G01*
X249110000Y-141110000D02*
G75*
G03*
X249110000Y-141110000I-550000J0D01*
G01*
%TO.C,D1*%
X83610000Y-182180000D02*
G75*
G03*
X83610000Y-182180000I-550000J0D01*
G01*
X83610000Y-169480000D02*
G75*
G03*
X83610000Y-169480000I-550000J0D01*
G01*
%TO.C,C48*%
X319200000Y-69480000D02*
G75*
G03*
X319200000Y-69480000I-550000J0D01*
G01*
X325550000Y-69480000D02*
G75*
G03*
X325550000Y-69480000I-550000J0D01*
G01*
%TO.C,R16*%
X279640000Y-82640000D02*
G75*
G03*
X279640000Y-82640000I-550000J0D01*
G01*
X279640000Y-69940000D02*
G75*
G03*
X279640000Y-69940000I-550000J0D01*
G01*
%TO.C,P1*%
X252010000Y-190060000D02*
G75*
G03*
X252010000Y-190060000I-550000J0D01*
G01*
X249470000Y-187520000D02*
G75*
G03*
X249470000Y-187520000I-550000J0D01*
G01*
X254550000Y-187520000D02*
G75*
G03*
X254550000Y-187520000I-550000J0D01*
G01*
%TO.C,U10*%
G36*
X262160000Y-167910000D02*
G01*
X266160000Y-167910000D01*
X266160000Y-185150000D01*
X262160000Y-185150000D01*
X262160000Y-167910000D01*
G37*
G36*
X269780000Y-167910000D02*
G01*
X273780000Y-167910000D01*
X273780000Y-185150000D01*
X269780000Y-185150000D01*
X269780000Y-167910000D01*
G37*
%TO.C,C8*%
X301350000Y-188690000D02*
G75*
G03*
X301350000Y-188690000I-550000J0D01*
G01*
X307700000Y-188690000D02*
G75*
G03*
X307700000Y-188690000I-550000J0D01*
G01*
%TO.C,U42*%
G36*
X225330000Y-77740000D02*
G01*
X229330000Y-77740000D01*
X229330000Y-105140000D01*
X225330000Y-105140000D01*
X225330000Y-77740000D01*
G37*
G36*
X235490000Y-77740000D02*
G01*
X239490000Y-77740000D01*
X239490000Y-105140000D01*
X235490000Y-105140000D01*
X235490000Y-77740000D01*
G37*
%TO.C,C53*%
X193590000Y-73940000D02*
G75*
G03*
X193590000Y-73940000I-550000J0D01*
G01*
X199354387Y-76603521D02*
G75*
G03*
X199354387Y-76603521I-550000J0D01*
G01*
%TO.C,U46*%
G36*
X315500000Y-72660000D02*
G01*
X319500000Y-72660000D01*
X319500000Y-89900000D01*
X315500000Y-89900000D01*
X315500000Y-72660000D01*
G37*
G36*
X323120000Y-72660000D02*
G01*
X327120000Y-72660000D01*
X327120000Y-89900000D01*
X323120000Y-89900000D01*
X323120000Y-72660000D01*
G37*
%TO.C,R20*%
X270850000Y-130370000D02*
G75*
G03*
X270850000Y-130370000I-550000J0D01*
G01*
X270850000Y-143070000D02*
G75*
G03*
X270850000Y-143070000I-550000J0D01*
G01*
%TO.C,U16*%
G36*
X297720000Y-136160000D02*
G01*
X301720000Y-136160000D01*
X301720000Y-153400000D01*
X297720000Y-153400000D01*
X297720000Y-136160000D01*
G37*
G36*
X305340000Y-136160000D02*
G01*
X309340000Y-136160000D01*
X309340000Y-153400000D01*
X305340000Y-153400000D01*
X305340000Y-136160000D01*
G37*
%TO.C,C22*%
X336300000Y-125230000D02*
G75*
G03*
X336300000Y-125230000I-550000J0D01*
G01*
X342650000Y-125230000D02*
G75*
G03*
X342650000Y-125230000I-550000J0D01*
G01*
%TO.C,U29*%
G36*
X279940000Y-104410000D02*
G01*
X283940000Y-104410000D01*
X283940000Y-121650000D01*
X279940000Y-121650000D01*
X279940000Y-104410000D01*
G37*
G36*
X287560000Y-104410000D02*
G01*
X291560000Y-104410000D01*
X291560000Y-121650000D01*
X287560000Y-121650000D01*
X287560000Y-104410000D01*
G37*
%TO.C,R5*%
X275430000Y-158380000D02*
G75*
G03*
X275430000Y-158380000I-550000J0D01*
G01*
X275430000Y-171080000D02*
G75*
G03*
X275430000Y-171080000I-550000J0D01*
G01*
%TO.C,C31*%
X280270000Y-102330000D02*
G75*
G03*
X280270000Y-102330000I-550000J0D01*
G01*
X273920000Y-102330000D02*
G75*
G03*
X273920000Y-102330000I-550000J0D01*
G01*
%TO.C,R18*%
X296140000Y-70080000D02*
G75*
G03*
X296140000Y-70080000I-550000J0D01*
G01*
X296140000Y-82140000D02*
G75*
G03*
X296140000Y-82140000I-550000J0D01*
G01*
%TO.C,U32*%
G36*
X333280000Y-104410000D02*
G01*
X337280000Y-104410000D01*
X337280000Y-121650000D01*
X333280000Y-121650000D01*
X333280000Y-104410000D01*
G37*
G36*
X340900000Y-104410000D02*
G01*
X344900000Y-104410000D01*
X344900000Y-121650000D01*
X340900000Y-121650000D01*
X340900000Y-104410000D01*
G37*
%TO.C,C32*%
X300620000Y-99830000D02*
G75*
G03*
X300620000Y-99830000I-550000J0D01*
G01*
X306970000Y-99830000D02*
G75*
G03*
X306970000Y-99830000I-550000J0D01*
G01*
%TO.C,U39*%
G36*
X175800000Y-77740000D02*
G01*
X179800000Y-77740000D01*
X179800000Y-105140000D01*
X175800000Y-105140000D01*
X175800000Y-77740000D01*
G37*
G36*
X185960000Y-77740000D02*
G01*
X189960000Y-77740000D01*
X189960000Y-105140000D01*
X185960000Y-105140000D01*
X185960000Y-77740000D01*
G37*
%TO.C,U40*%
G36*
X192310000Y-77740000D02*
G01*
X196310000Y-77740000D01*
X196310000Y-105140000D01*
X192310000Y-105140000D01*
X192310000Y-77740000D01*
G37*
G36*
X202470000Y-77740000D02*
G01*
X206470000Y-77740000D01*
X206470000Y-105140000D01*
X202470000Y-105140000D01*
X202470000Y-77740000D01*
G37*
%TO.C,C51*%
D12*
X114730000Y-72540000D02*
G75*
G03*
X114730000Y-72540000I-600000J0D01*
G01*
X109730000Y-72540000D02*
G75*
G03*
X109730000Y-72540000I-600000J0D01*
G01*
%TO.C,R1*%
D10*
X119750000Y-146430000D02*
G75*
G03*
X119750000Y-146430000I-550000J0D01*
G01*
X132450000Y-146430000D02*
G75*
G03*
X132450000Y-146430000I-550000J0D01*
G01*
%TO.C,U35*%
G36*
X94520000Y-75200000D02*
G01*
X98520000Y-75200000D01*
X98520000Y-94980000D01*
X94520000Y-94980000D01*
X94520000Y-75200000D01*
G37*
G36*
X102140000Y-75200000D02*
G01*
X106140000Y-75200000D01*
X106140000Y-94980000D01*
X102140000Y-94980000D01*
X102140000Y-75200000D01*
G37*
%TO.C,Q1*%
D16*
X146340000Y-155500000D02*
G75*
G03*
X146340000Y-155500000I-700000J0D01*
G01*
X148220000Y-158040000D02*
G75*
G03*
X148220000Y-158040000I-700000J0D01*
G01*
X146340000Y-160580000D02*
G75*
G03*
X146340000Y-160580000I-700000J0D01*
G01*
%TO.C,C21*%
D10*
X270850000Y-121430000D02*
G75*
G03*
X270850000Y-121430000I-550000J0D01*
G01*
X270850000Y-115080000D02*
G75*
G03*
X270850000Y-115080000I-550000J0D01*
G01*
%TO.C,U19*%
G36*
X74200000Y-120920000D02*
G01*
X78200000Y-120920000D01*
X78200000Y-138160000D01*
X74200000Y-138160000D01*
X74200000Y-120920000D01*
G37*
G36*
X81820000Y-120920000D02*
G01*
X85820000Y-120920000D01*
X85820000Y-138160000D01*
X81820000Y-138160000D01*
X81820000Y-120920000D01*
G37*
%TO.C,R4*%
X254330000Y-150090000D02*
G75*
G03*
X254330000Y-150090000I-550000J0D01*
G01*
X267030000Y-150090000D02*
G75*
G03*
X267030000Y-150090000I-550000J0D01*
G01*
%TO.C,C2*%
X152200000Y-192130000D02*
G75*
G03*
X152200000Y-192130000I-550000J0D01*
G01*
X161056171Y-191355185D02*
G75*
G03*
X161056171Y-191355185I-550000J0D01*
G01*
%TO.C,Q7*%
X273220000Y-90130000D02*
G75*
G03*
X273220000Y-90130000I-550000J0D01*
G01*
X274770000Y-88860000D02*
G75*
G03*
X274770000Y-88860000I-550000J0D01*
G01*
X273220000Y-87590000D02*
G75*
G03*
X273220000Y-87590000I-550000J0D01*
G01*
%TO.C,C45*%
X289990000Y-124620000D02*
G75*
G03*
X289990000Y-124620000I-550000J0D01*
G01*
X283640000Y-124620000D02*
G75*
G03*
X283640000Y-124620000I-550000J0D01*
G01*
%TO.C,U6*%
G36*
X209820000Y-182340000D02*
G01*
X227060000Y-182340000D01*
X227060000Y-178340000D01*
X209820000Y-178340000D01*
X209820000Y-182340000D01*
G37*
G36*
X209820000Y-174720000D02*
G01*
X227060000Y-174720000D01*
X227060000Y-170720000D01*
X209820000Y-170720000D01*
X209820000Y-174720000D01*
G37*
%TO.C,U26*%
G36*
X208820000Y-110760000D02*
G01*
X212820000Y-110760000D01*
X212820000Y-138160000D01*
X208820000Y-138160000D01*
X208820000Y-110760000D01*
G37*
G36*
X218980000Y-110760000D02*
G01*
X222980000Y-110760000D01*
X222980000Y-138160000D01*
X218980000Y-138160000D01*
X218980000Y-110760000D01*
G37*
%TO.C,C33*%
X316500000Y-96720000D02*
G75*
G03*
X316500000Y-96720000I-550000J0D01*
G01*
X310150000Y-96720000D02*
G75*
G03*
X310150000Y-96720000I-550000J0D01*
G01*
%TO.C,C10*%
X336930000Y-190690000D02*
G75*
G03*
X336930000Y-190690000I-550000J0D01*
G01*
X343280000Y-190690000D02*
G75*
G03*
X343280000Y-190690000I-550000J0D01*
G01*
%TO.C,C3*%
X203570000Y-173450000D02*
G75*
G03*
X203570000Y-173450000I-550000J0D01*
G01*
X203570000Y-179800000D02*
G75*
G03*
X203570000Y-179800000I-550000J0D01*
G01*
%TO.C,C40*%
X206990000Y-76600000D02*
G75*
G03*
X206990000Y-76600000I-550000J0D01*
G01*
D11*
X203347790Y-71398385D02*
G75*
G03*
X203347790Y-71398385I-550000J0D01*
G01*
%TD*%
D18*
%TO.C,C23*%
X131712500Y-108170000D03*
X138062500Y-108170000D03*
%TD*%
%TO.C,C18*%
X335750000Y-162730000D03*
X342100000Y-162730000D03*
%TD*%
%TO.C,D4*%
X283530000Y-94710000D03*
X270830000Y-94710000D03*
%TD*%
%TO.C,C35*%
X96680000Y-72280000D03*
X103030000Y-72280000D03*
%TD*%
D19*
%TO.C,U17*%
X317500000Y-137160000D03*
X317500000Y-139700000D03*
X317500000Y-142240000D03*
X317500000Y-144780000D03*
X317500000Y-147320000D03*
X317500000Y-149860000D03*
X317500000Y-152400000D03*
X325120000Y-152400000D03*
X325120000Y-149860000D03*
X325120000Y-147320000D03*
X325120000Y-144780000D03*
X325120000Y-142240000D03*
X325120000Y-139700000D03*
X325120000Y-137160000D03*
%TD*%
D18*
%TO.C,R2*%
X257730000Y-171600000D03*
X257730000Y-184300000D03*
%TD*%
%TO.C,R8*%
X272840000Y-108730000D03*
X272840000Y-121430000D03*
%TD*%
%TO.C,C38*%
X173413973Y-76600000D03*
X169771763Y-71398385D03*
%TD*%
D19*
%TO.C,U24*%
X177800000Y-111760000D03*
X177800000Y-114300000D03*
X177800000Y-116840000D03*
X177800000Y-119380000D03*
X177800000Y-121920000D03*
X177800000Y-124460000D03*
X177800000Y-127000000D03*
X177800000Y-129540000D03*
X177800000Y-132080000D03*
X177800000Y-134620000D03*
X177800000Y-137160000D03*
X187960000Y-137160000D03*
X187960000Y-134620000D03*
X187960000Y-132080000D03*
X187960000Y-129540000D03*
X187960000Y-127000000D03*
X187960000Y-124460000D03*
X187960000Y-121920000D03*
X187960000Y-119380000D03*
X187960000Y-116840000D03*
X187960000Y-114300000D03*
X187960000Y-111760000D03*
%TD*%
D20*
%TO.C,C55*%
X115630000Y-82090000D03*
X120630000Y-82090000D03*
%TD*%
D19*
%TO.C,U47*%
X335280000Y-73660000D03*
X335280000Y-76200000D03*
X335280000Y-78740000D03*
X335280000Y-81280000D03*
X335280000Y-83820000D03*
X335280000Y-86360000D03*
X335280000Y-88900000D03*
X342900000Y-88900000D03*
X342900000Y-86360000D03*
X342900000Y-83820000D03*
X342900000Y-81280000D03*
X342900000Y-78740000D03*
X342900000Y-76200000D03*
X342900000Y-73660000D03*
%TD*%
%TO.C,U33*%
X96520000Y-99060000D03*
X96520000Y-101600000D03*
X96520000Y-104140000D03*
X96520000Y-106680000D03*
X96520000Y-109220000D03*
X96520000Y-111760000D03*
X96520000Y-114300000D03*
X96520000Y-116840000D03*
X104140000Y-116840000D03*
X104140000Y-114300000D03*
X104140000Y-111760000D03*
X104140000Y-109220000D03*
X104140000Y-106680000D03*
X104140000Y-104140000D03*
X104140000Y-101600000D03*
X104140000Y-99060000D03*
%TD*%
D21*
%TO.C,U9*%
X236220000Y-162560000D03*
X238760000Y-162560000D03*
X241300000Y-162560000D03*
X243840000Y-162560000D03*
X246380000Y-162560000D03*
X248920000Y-162560000D03*
X251460000Y-162560000D03*
X254000000Y-162560000D03*
X254000000Y-154940000D03*
X251460000Y-154940000D03*
X248920000Y-154940000D03*
X246380000Y-154940000D03*
X243840000Y-154940000D03*
X241300000Y-154940000D03*
X238760000Y-154940000D03*
X236220000Y-154940000D03*
%TD*%
D18*
%TO.C,C42*%
X239450000Y-76600000D03*
X235807790Y-71398385D03*
%TD*%
%TO.C,R3*%
X260890000Y-169740000D03*
X260890000Y-157040000D03*
%TD*%
%TO.C,R17*%
X293050000Y-82150000D03*
X293050000Y-70090000D03*
%TD*%
%TO.C,C34*%
X77130000Y-72280000D03*
X83480000Y-72280000D03*
%TD*%
D19*
%TO.C,S1*%
X121920000Y-151130000D03*
X121920000Y-153670000D03*
X121920000Y-156210000D03*
X121920000Y-158750000D03*
X121920000Y-161290000D03*
X121920000Y-163830000D03*
X121920000Y-166370000D03*
X121920000Y-168910000D03*
X129540000Y-168910000D03*
X129540000Y-166370000D03*
X129540000Y-163830000D03*
X129540000Y-161290000D03*
X129540000Y-158750000D03*
X129540000Y-156210000D03*
X129540000Y-153670000D03*
X129540000Y-151130000D03*
%TD*%
D18*
%TO.C,R10*%
X323010000Y-99830000D03*
X310310000Y-99830000D03*
%TD*%
D22*
%TO.C,Q6*%
X267290000Y-108040000D03*
X268560000Y-109590000D03*
X269830000Y-108040000D03*
%TD*%
D19*
%TO.C,U44*%
X281940000Y-73660000D03*
X281940000Y-76200000D03*
X281940000Y-78740000D03*
X281940000Y-81280000D03*
X281940000Y-83820000D03*
X281940000Y-86360000D03*
X281940000Y-88900000D03*
X289560000Y-88900000D03*
X289560000Y-86360000D03*
X289560000Y-83820000D03*
X289560000Y-81280000D03*
X289560000Y-78740000D03*
X289560000Y-76200000D03*
X289560000Y-73660000D03*
%TD*%
%TO.C,U2*%
X109220000Y-151130000D03*
X109220000Y-153670000D03*
X109220000Y-156210000D03*
X109220000Y-158750000D03*
X109220000Y-161290000D03*
X109220000Y-163830000D03*
X109220000Y-166370000D03*
X116840000Y-166370000D03*
X116840000Y-163830000D03*
X116840000Y-161290000D03*
X116840000Y-158750000D03*
X116840000Y-156210000D03*
X116840000Y-153670000D03*
X116840000Y-151130000D03*
%TD*%
D18*
%TO.C,C46*%
X282260000Y-69480000D03*
X288610000Y-69480000D03*
%TD*%
D19*
%TO.C,U41*%
X210820000Y-78740000D03*
X210820000Y-81280000D03*
X210820000Y-83820000D03*
X210820000Y-86360000D03*
X210820000Y-88900000D03*
X210820000Y-91440000D03*
X210820000Y-93980000D03*
X210820000Y-96520000D03*
X210820000Y-99060000D03*
X210820000Y-101600000D03*
X210820000Y-104140000D03*
X220980000Y-104140000D03*
X220980000Y-101600000D03*
X220980000Y-99060000D03*
X220980000Y-96520000D03*
X220980000Y-93980000D03*
X220980000Y-91440000D03*
X220980000Y-88900000D03*
X220980000Y-86360000D03*
X220980000Y-83820000D03*
X220980000Y-81280000D03*
X220980000Y-78740000D03*
%TD*%
%TO.C,U21*%
X128270000Y-111760000D03*
X128270000Y-114300000D03*
X128270000Y-116840000D03*
X128270000Y-119380000D03*
X128270000Y-121920000D03*
X128270000Y-124460000D03*
X128270000Y-127000000D03*
X128270000Y-129540000D03*
X128270000Y-132080000D03*
X128270000Y-134620000D03*
X128270000Y-137160000D03*
X138430000Y-137160000D03*
X138430000Y-134620000D03*
X138430000Y-132080000D03*
X138430000Y-129540000D03*
X138430000Y-127000000D03*
X138430000Y-124460000D03*
X138430000Y-121920000D03*
X138430000Y-119380000D03*
X138430000Y-116840000D03*
X138430000Y-114300000D03*
X138430000Y-111760000D03*
%TD*%
%TO.C,U12*%
X299720000Y-168910000D03*
X299720000Y-171450000D03*
X299720000Y-173990000D03*
X299720000Y-176530000D03*
X299720000Y-179070000D03*
X299720000Y-181610000D03*
X299720000Y-184150000D03*
X307340000Y-184150000D03*
X307340000Y-181610000D03*
X307340000Y-179070000D03*
X307340000Y-176530000D03*
X307340000Y-173990000D03*
X307340000Y-171450000D03*
X307340000Y-168910000D03*
%TD*%
%TO.C,U11*%
X281940000Y-168910000D03*
X281940000Y-171450000D03*
X281940000Y-173990000D03*
X281940000Y-176530000D03*
X281940000Y-179070000D03*
X281940000Y-181610000D03*
X281940000Y-184150000D03*
X289560000Y-184150000D03*
X289560000Y-181610000D03*
X289560000Y-179070000D03*
X289560000Y-176530000D03*
X289560000Y-173990000D03*
X289560000Y-171450000D03*
X289560000Y-168910000D03*
%TD*%
D18*
%TO.C,C24*%
X148250000Y-108160000D03*
X154600000Y-108160000D03*
%TD*%
D19*
%TO.C,U23*%
X161290000Y-111760000D03*
X161290000Y-114300000D03*
X161290000Y-116840000D03*
X161290000Y-119380000D03*
X161290000Y-121920000D03*
X161290000Y-124460000D03*
X161290000Y-127000000D03*
X161290000Y-129540000D03*
X161290000Y-132080000D03*
X161290000Y-134620000D03*
X161290000Y-137160000D03*
X171450000Y-137160000D03*
X171450000Y-134620000D03*
X171450000Y-132080000D03*
X171450000Y-129540000D03*
X171450000Y-127000000D03*
X171450000Y-124460000D03*
X171450000Y-121920000D03*
X171450000Y-119380000D03*
X171450000Y-116840000D03*
X171450000Y-114300000D03*
X171450000Y-111760000D03*
%TD*%
D18*
%TO.C,C50*%
X272840000Y-136720000D03*
X272840000Y-130370000D03*
%TD*%
D19*
%TO.C,U15*%
X281940000Y-137160000D03*
X281940000Y-139700000D03*
X281940000Y-142240000D03*
X281940000Y-144780000D03*
X281940000Y-147320000D03*
X281940000Y-149860000D03*
X281940000Y-152400000D03*
X289560000Y-152400000D03*
X289560000Y-149860000D03*
X289560000Y-147320000D03*
X289560000Y-144780000D03*
X289560000Y-142240000D03*
X289560000Y-139700000D03*
X289560000Y-137160000D03*
%TD*%
%TO.C,U25*%
X194310000Y-111760000D03*
X194310000Y-114300000D03*
X194310000Y-116840000D03*
X194310000Y-119380000D03*
X194310000Y-121920000D03*
X194310000Y-124460000D03*
X194310000Y-127000000D03*
X194310000Y-129540000D03*
X194310000Y-132080000D03*
X194310000Y-134620000D03*
X194310000Y-137160000D03*
X204470000Y-137160000D03*
X204470000Y-134620000D03*
X204470000Y-132080000D03*
X204470000Y-129540000D03*
X204470000Y-127000000D03*
X204470000Y-124460000D03*
X204470000Y-121920000D03*
X204470000Y-119380000D03*
X204470000Y-116840000D03*
X204470000Y-114300000D03*
X204470000Y-111760000D03*
%TD*%
D21*
%TO.C,U8*%
X236220000Y-180340000D03*
X238760000Y-180340000D03*
X241300000Y-180340000D03*
X243840000Y-180340000D03*
X246380000Y-180340000D03*
X248920000Y-180340000D03*
X251460000Y-180340000D03*
X254000000Y-180340000D03*
X254000000Y-172720000D03*
X251460000Y-172720000D03*
X248920000Y-172720000D03*
X246380000Y-172720000D03*
X243840000Y-172720000D03*
X241300000Y-172720000D03*
X238760000Y-172720000D03*
X236220000Y-172720000D03*
%TD*%
D18*
%TO.C,C15*%
X258300000Y-162100000D03*
X258300000Y-155750000D03*
%TD*%
%TO.C,C13*%
X135080000Y-147550000D03*
X141430000Y-147550000D03*
%TD*%
%TO.C,R6*%
X323050000Y-159240000D03*
X335750000Y-159240000D03*
%TD*%
%TO.C,C41*%
X222950000Y-76600000D03*
X219307790Y-71398385D03*
%TD*%
D21*
%TO.C,U7*%
X208280000Y-162560000D03*
X210820000Y-162560000D03*
X213360000Y-162560000D03*
X215900000Y-162560000D03*
X218440000Y-162560000D03*
X220980000Y-162560000D03*
X223520000Y-162560000D03*
X226060000Y-162560000D03*
X226060000Y-154940000D03*
X223520000Y-154940000D03*
X220980000Y-154940000D03*
X218440000Y-154940000D03*
X215900000Y-154940000D03*
X213360000Y-154940000D03*
X210820000Y-154940000D03*
X208280000Y-154940000D03*
%TD*%
D23*
%TO.C,C1*%
X139600000Y-178630000D03*
X133250000Y-178630000D03*
%TD*%
D18*
%TO.C,D3*%
X283530000Y-97250000D03*
X270830000Y-97250000D03*
%TD*%
D24*
%TO.C,J1*%
X271920000Y-75226000D03*
D25*
X271920000Y-84370000D03*
%TD*%
D19*
%TO.C,U14*%
X335280000Y-168910000D03*
X335280000Y-171450000D03*
X335280000Y-173990000D03*
X335280000Y-176530000D03*
X335280000Y-179070000D03*
X335280000Y-181610000D03*
X335280000Y-184150000D03*
X335280000Y-186690000D03*
X342900000Y-186690000D03*
X342900000Y-184150000D03*
X342900000Y-181610000D03*
X342900000Y-179070000D03*
X342900000Y-176530000D03*
X342900000Y-173990000D03*
X342900000Y-171450000D03*
X342900000Y-168910000D03*
%TD*%
%TO.C,U45*%
X299720000Y-73660000D03*
X299720000Y-76200000D03*
X299720000Y-78740000D03*
X299720000Y-81280000D03*
X299720000Y-83820000D03*
X299720000Y-86360000D03*
X299720000Y-88900000D03*
X299720000Y-91440000D03*
X307340000Y-91440000D03*
X307340000Y-88900000D03*
X307340000Y-86360000D03*
X307340000Y-83820000D03*
X307340000Y-81280000D03*
X307340000Y-78740000D03*
X307340000Y-76200000D03*
X307340000Y-73660000D03*
%TD*%
D18*
%TO.C,C39*%
X189927946Y-76600000D03*
X186285736Y-71398385D03*
%TD*%
D19*
%TO.C,U20*%
X96520000Y-121920000D03*
X96520000Y-124460000D03*
X96520000Y-127000000D03*
X96520000Y-129540000D03*
X96520000Y-132080000D03*
X96520000Y-134620000D03*
X96520000Y-137160000D03*
X96520000Y-139700000D03*
X104140000Y-139700000D03*
X104140000Y-137160000D03*
X104140000Y-134620000D03*
X104140000Y-132080000D03*
X104140000Y-129540000D03*
X104140000Y-127000000D03*
X104140000Y-124460000D03*
X104140000Y-121920000D03*
%TD*%
D18*
%TO.C,C5*%
X260900000Y-172150000D03*
X260900000Y-178500000D03*
%TD*%
%TO.C,R7*%
X260140000Y-125290000D03*
X272840000Y-125290000D03*
%TD*%
%TO.C,C12*%
X96340000Y-143040000D03*
X102690000Y-143040000D03*
%TD*%
D19*
%TO.C,U38*%
X161290000Y-78740000D03*
X161290000Y-81280000D03*
X161290000Y-83820000D03*
X161290000Y-86360000D03*
X161290000Y-88900000D03*
X161290000Y-91440000D03*
X161290000Y-93980000D03*
X161290000Y-96520000D03*
X161290000Y-99060000D03*
X161290000Y-101600000D03*
X161290000Y-104140000D03*
X171450000Y-104140000D03*
X171450000Y-101600000D03*
X171450000Y-99060000D03*
X171450000Y-96520000D03*
X171450000Y-93980000D03*
X171450000Y-91440000D03*
X171450000Y-88900000D03*
X171450000Y-86360000D03*
X171450000Y-83820000D03*
X171450000Y-81280000D03*
X171450000Y-78740000D03*
%TD*%
D18*
%TO.C,C4*%
X232230000Y-179800000D03*
X232230000Y-173450000D03*
%TD*%
D26*
%TO.C,REF\u002A\u002A*%
X161500000Y-158040000D03*
%TD*%
%TO.C,Q2*%
X161500000Y-158040000D03*
D27*
X177360000Y-160580000D03*
X175480000Y-158040000D03*
X177360000Y-155500000D03*
%TD*%
D18*
%TO.C,C9*%
X318080000Y-188690000D03*
X325060000Y-188690000D03*
%TD*%
%TO.C,C36*%
X140400000Y-76600000D03*
X136757790Y-71398385D03*
%TD*%
D21*
%TO.C,U4*%
X182880000Y-180340000D03*
X185420000Y-180340000D03*
X187960000Y-180340000D03*
X190500000Y-180340000D03*
X193040000Y-180340000D03*
X195580000Y-180340000D03*
X198120000Y-180340000D03*
X198120000Y-172720000D03*
X195580000Y-172720000D03*
X193040000Y-172720000D03*
X190500000Y-172720000D03*
X187960000Y-172720000D03*
X185420000Y-172720000D03*
X182880000Y-172720000D03*
%TD*%
D19*
%TO.C,U3*%
X134620000Y-151130000D03*
X134620000Y-153670000D03*
X134620000Y-156210000D03*
X134620000Y-158750000D03*
X134620000Y-161290000D03*
X134620000Y-163830000D03*
X134620000Y-166370000D03*
X142240000Y-166370000D03*
X142240000Y-163830000D03*
X142240000Y-161290000D03*
X142240000Y-158750000D03*
X142240000Y-156210000D03*
X142240000Y-153670000D03*
X142240000Y-151130000D03*
%TD*%
%TO.C,U1*%
X76200000Y-147320000D03*
X76200000Y-149860000D03*
X76200000Y-152400000D03*
X76200000Y-154940000D03*
X76200000Y-157480000D03*
X76200000Y-160020000D03*
X76200000Y-162560000D03*
X83820000Y-162560000D03*
X83820000Y-160020000D03*
X83820000Y-157480000D03*
X83820000Y-154940000D03*
X83820000Y-152400000D03*
X83820000Y-149860000D03*
X83820000Y-147320000D03*
%TD*%
%TO.C,U22*%
X144780000Y-111760000D03*
X144780000Y-114300000D03*
X144780000Y-116840000D03*
X144780000Y-119380000D03*
X144780000Y-121920000D03*
X144780000Y-124460000D03*
X144780000Y-127000000D03*
X144780000Y-129540000D03*
X144780000Y-132080000D03*
X144780000Y-134620000D03*
X144780000Y-137160000D03*
X154940000Y-137160000D03*
X154940000Y-134620000D03*
X154940000Y-132080000D03*
X154940000Y-129540000D03*
X154940000Y-127000000D03*
X154940000Y-124460000D03*
X154940000Y-121920000D03*
X154940000Y-119380000D03*
X154940000Y-116840000D03*
X154940000Y-114300000D03*
X154940000Y-111760000D03*
%TD*%
D18*
%TO.C,C7*%
X283090000Y-188690000D03*
X289440000Y-188690000D03*
%TD*%
%TO.C,C47*%
X300670000Y-69480000D03*
X307020000Y-69480000D03*
%TD*%
D22*
%TO.C,Q3*%
X260510000Y-136660000D03*
X262060000Y-135390000D03*
X260510000Y-134120000D03*
%TD*%
D18*
%TO.C,R19*%
X267750000Y-130370000D03*
X267750000Y-143070000D03*
%TD*%
%TO.C,R12*%
X330310000Y-94480000D03*
X317610000Y-94480000D03*
%TD*%
%TO.C,C11*%
X77290000Y-143040000D03*
X83640000Y-143040000D03*
%TD*%
%TO.C,C26*%
X181300000Y-108160000D03*
X187650000Y-108160000D03*
%TD*%
%TO.C,C54*%
X225420000Y-73940000D03*
X231184387Y-76603521D03*
%TD*%
D19*
%TO.C,U13*%
X317500000Y-168910000D03*
X317500000Y-171450000D03*
X317500000Y-173990000D03*
X317500000Y-176530000D03*
X317500000Y-179070000D03*
X317500000Y-181610000D03*
X317500000Y-184150000D03*
X325120000Y-184150000D03*
X325120000Y-181610000D03*
X325120000Y-179070000D03*
X325120000Y-176530000D03*
X325120000Y-173990000D03*
X325120000Y-171450000D03*
X325120000Y-168910000D03*
%TD*%
%TO.C,U36*%
X128270000Y-78740000D03*
X128270000Y-81280000D03*
X128270000Y-83820000D03*
X128270000Y-86360000D03*
X128270000Y-88900000D03*
X128270000Y-91440000D03*
X128270000Y-93980000D03*
X128270000Y-96520000D03*
X128270000Y-99060000D03*
X128270000Y-101600000D03*
X128270000Y-104140000D03*
X138430000Y-104140000D03*
X138430000Y-101600000D03*
X138430000Y-99060000D03*
X138430000Y-96520000D03*
X138430000Y-93980000D03*
X138430000Y-91440000D03*
X138430000Y-88900000D03*
X138430000Y-86360000D03*
X138430000Y-83820000D03*
X138430000Y-81280000D03*
X138430000Y-78740000D03*
%TD*%
D18*
%TO.C,C30*%
X247520000Y-108160000D03*
X253870000Y-108160000D03*
%TD*%
%TO.C,C43*%
X255970000Y-76600000D03*
X252327790Y-71398385D03*
%TD*%
D19*
%TO.C,U28*%
X243840000Y-111760000D03*
X243840000Y-114300000D03*
X243840000Y-116840000D03*
X243840000Y-119380000D03*
X243840000Y-121920000D03*
X243840000Y-124460000D03*
X243840000Y-127000000D03*
X243840000Y-129540000D03*
X243840000Y-132080000D03*
X243840000Y-134620000D03*
X243840000Y-137160000D03*
X254000000Y-137160000D03*
X254000000Y-134620000D03*
X254000000Y-132080000D03*
X254000000Y-129540000D03*
X254000000Y-127000000D03*
X254000000Y-124460000D03*
X254000000Y-121920000D03*
X254000000Y-119380000D03*
X254000000Y-116840000D03*
X254000000Y-114300000D03*
X254000000Y-111760000D03*
%TD*%
D21*
%TO.C,U5*%
X180340000Y-162560000D03*
X182880000Y-162560000D03*
X185420000Y-162560000D03*
X187960000Y-162560000D03*
X190500000Y-162560000D03*
X193040000Y-162560000D03*
X195580000Y-162560000D03*
X198120000Y-162560000D03*
X198120000Y-154940000D03*
X195580000Y-154940000D03*
X193040000Y-154940000D03*
X190500000Y-154940000D03*
X187960000Y-154940000D03*
X185420000Y-154940000D03*
X182880000Y-154940000D03*
X180340000Y-154940000D03*
%TD*%
D18*
%TO.C,C17*%
X269870000Y-162100000D03*
X263520000Y-162100000D03*
%TD*%
%TO.C,R14*%
X265750000Y-95340000D03*
X265750000Y-82640000D03*
%TD*%
D19*
%TO.C,U31*%
X317500000Y-105410000D03*
X317500000Y-107950000D03*
X317500000Y-110490000D03*
X317500000Y-113030000D03*
X317500000Y-115570000D03*
X317500000Y-118110000D03*
X317500000Y-120650000D03*
X325120000Y-120650000D03*
X325120000Y-118110000D03*
X325120000Y-115570000D03*
X325120000Y-113030000D03*
X325120000Y-110490000D03*
X325120000Y-107950000D03*
X325120000Y-105410000D03*
%TD*%
%TO.C,U43*%
X243840000Y-78740000D03*
X243840000Y-81280000D03*
X243840000Y-83820000D03*
X243840000Y-86360000D03*
X243840000Y-88900000D03*
X243840000Y-91440000D03*
X243840000Y-93980000D03*
X243840000Y-96520000D03*
X243840000Y-99060000D03*
X243840000Y-101600000D03*
X243840000Y-104140000D03*
X254000000Y-104140000D03*
X254000000Y-101600000D03*
X254000000Y-99060000D03*
X254000000Y-96520000D03*
X254000000Y-93980000D03*
X254000000Y-91440000D03*
X254000000Y-88900000D03*
X254000000Y-86360000D03*
X254000000Y-83820000D03*
X254000000Y-81280000D03*
X254000000Y-78740000D03*
%TD*%
%TO.C,U30*%
X299720000Y-105410000D03*
X299720000Y-107950000D03*
X299720000Y-110490000D03*
X299720000Y-113030000D03*
X299720000Y-115570000D03*
X299720000Y-118110000D03*
X299720000Y-120650000D03*
X299720000Y-123190000D03*
X307340000Y-123190000D03*
X307340000Y-120650000D03*
X307340000Y-118110000D03*
X307340000Y-115570000D03*
X307340000Y-113030000D03*
X307340000Y-110490000D03*
X307340000Y-107950000D03*
X307340000Y-105410000D03*
%TD*%
D18*
%TO.C,R15*%
X274640000Y-92170000D03*
X287340000Y-92170000D03*
%TD*%
%TO.C,R13*%
X317610000Y-91940000D03*
X330310000Y-91940000D03*
%TD*%
D19*
%TO.C,U34*%
X76200000Y-76200000D03*
X76200000Y-78740000D03*
X76200000Y-81280000D03*
X76200000Y-83820000D03*
X76200000Y-86360000D03*
X76200000Y-88900000D03*
X76200000Y-91440000D03*
X83820000Y-91440000D03*
X83820000Y-88900000D03*
X83820000Y-86360000D03*
X83820000Y-83820000D03*
X83820000Y-81280000D03*
X83820000Y-78740000D03*
X83820000Y-76200000D03*
%TD*%
D22*
%TO.C,Q4*%
X261460000Y-127630000D03*
X259910000Y-128900000D03*
X261460000Y-130170000D03*
%TD*%
D19*
%TO.C,U27*%
X227330000Y-111760000D03*
X227330000Y-114300000D03*
X227330000Y-116840000D03*
X227330000Y-119380000D03*
X227330000Y-121920000D03*
X227330000Y-124460000D03*
X227330000Y-127000000D03*
X227330000Y-129540000D03*
X227330000Y-132080000D03*
X227330000Y-134620000D03*
X227330000Y-137160000D03*
X237490000Y-137160000D03*
X237490000Y-134620000D03*
X237490000Y-132080000D03*
X237490000Y-129540000D03*
X237490000Y-127000000D03*
X237490000Y-124460000D03*
X237490000Y-121920000D03*
X237490000Y-119380000D03*
X237490000Y-116840000D03*
X237490000Y-114300000D03*
X237490000Y-111760000D03*
%TD*%
D18*
%TO.C,C25*%
X164770000Y-108160000D03*
X171120000Y-108160000D03*
%TD*%
D19*
%TO.C,U18*%
X335280000Y-137160000D03*
X335280000Y-139700000D03*
X335280000Y-142240000D03*
X335280000Y-144780000D03*
X335280000Y-147320000D03*
X335280000Y-149860000D03*
X335280000Y-152400000D03*
X342900000Y-152400000D03*
X342900000Y-149860000D03*
X342900000Y-147320000D03*
X342900000Y-144780000D03*
X342900000Y-142240000D03*
X342900000Y-139700000D03*
X342900000Y-137160000D03*
%TD*%
D22*
%TO.C,Q5*%
X265220000Y-121430000D03*
X266490000Y-122980000D03*
X267760000Y-121430000D03*
%TD*%
D18*
%TO.C,C19*%
X265220000Y-136720000D03*
X265220000Y-130370000D03*
%TD*%
%TO.C,D2*%
X268290000Y-97250000D03*
X268290000Y-84550000D03*
%TD*%
%TO.C,C20*%
X272840000Y-127820000D03*
X266490000Y-127820000D03*
%TD*%
%TO.C,C37*%
X156910000Y-76600000D03*
X153267790Y-71398385D03*
%TD*%
%TO.C,C14*%
X203020000Y-162020000D03*
X203020000Y-155670000D03*
%TD*%
%TO.C,C49*%
X336430000Y-69480000D03*
X342780000Y-69480000D03*
%TD*%
%TO.C,C28*%
X214400000Y-108160000D03*
X220750000Y-108160000D03*
%TD*%
%TO.C,R9*%
X268290000Y-99790000D03*
X280990000Y-99790000D03*
%TD*%
D19*
%TO.C,U37*%
X144780000Y-78740000D03*
X144780000Y-81280000D03*
X144780000Y-83820000D03*
X144780000Y-86360000D03*
X144780000Y-88900000D03*
X144780000Y-91440000D03*
X144780000Y-93980000D03*
X144780000Y-96520000D03*
X144780000Y-99060000D03*
X144780000Y-101600000D03*
X144780000Y-104140000D03*
X154940000Y-104140000D03*
X154940000Y-101600000D03*
X154940000Y-99060000D03*
X154940000Y-96520000D03*
X154940000Y-93980000D03*
X154940000Y-91440000D03*
X154940000Y-88900000D03*
X154940000Y-86360000D03*
X154940000Y-83820000D03*
X154940000Y-81280000D03*
X154940000Y-78740000D03*
%TD*%
D18*
%TO.C,C29*%
X231000000Y-108160000D03*
X237350000Y-108160000D03*
%TD*%
%TO.C,C52*%
X160020000Y-73940000D03*
X165784387Y-76603521D03*
%TD*%
%TO.C,C27*%
X197870000Y-108160000D03*
X204220000Y-108160000D03*
%TD*%
%TO.C,C16*%
X254910000Y-141110000D03*
X248560000Y-141110000D03*
%TD*%
%TO.C,D1*%
X83060000Y-182180000D03*
X83060000Y-169480000D03*
%TD*%
%TO.C,C48*%
X318650000Y-69480000D03*
X325000000Y-69480000D03*
%TD*%
%TO.C,R16*%
X279090000Y-82640000D03*
X279090000Y-69940000D03*
%TD*%
%TO.C,P1*%
X254000000Y-187520000D03*
X251460000Y-190060000D03*
X248920000Y-187520000D03*
%TD*%
D19*
%TO.C,U10*%
X264160000Y-168910000D03*
X264160000Y-171450000D03*
X264160000Y-173990000D03*
X264160000Y-176530000D03*
X264160000Y-179070000D03*
X264160000Y-181610000D03*
X264160000Y-184150000D03*
X271780000Y-184150000D03*
X271780000Y-181610000D03*
X271780000Y-179070000D03*
X271780000Y-176530000D03*
X271780000Y-173990000D03*
X271780000Y-171450000D03*
X271780000Y-168910000D03*
%TD*%
D18*
%TO.C,C8*%
X300800000Y-188690000D03*
X307150000Y-188690000D03*
%TD*%
D19*
%TO.C,U42*%
X227330000Y-78740000D03*
X227330000Y-81280000D03*
X227330000Y-83820000D03*
X227330000Y-86360000D03*
X227330000Y-88900000D03*
X227330000Y-91440000D03*
X227330000Y-93980000D03*
X227330000Y-96520000D03*
X227330000Y-99060000D03*
X227330000Y-101600000D03*
X227330000Y-104140000D03*
X237490000Y-104140000D03*
X237490000Y-101600000D03*
X237490000Y-99060000D03*
X237490000Y-96520000D03*
X237490000Y-93980000D03*
X237490000Y-91440000D03*
X237490000Y-88900000D03*
X237490000Y-86360000D03*
X237490000Y-83820000D03*
X237490000Y-81280000D03*
X237490000Y-78740000D03*
%TD*%
D18*
%TO.C,C53*%
X193040000Y-73940000D03*
X198804387Y-76603521D03*
%TD*%
D19*
%TO.C,U46*%
X317500000Y-73660000D03*
X317500000Y-76200000D03*
X317500000Y-78740000D03*
X317500000Y-81280000D03*
X317500000Y-83820000D03*
X317500000Y-86360000D03*
X317500000Y-88900000D03*
X325120000Y-88900000D03*
X325120000Y-86360000D03*
X325120000Y-83820000D03*
X325120000Y-81280000D03*
X325120000Y-78740000D03*
X325120000Y-76200000D03*
X325120000Y-73660000D03*
%TD*%
D18*
%TO.C,R20*%
X270300000Y-130370000D03*
X270300000Y-143070000D03*
%TD*%
D19*
%TO.C,U16*%
X299720000Y-137160000D03*
X299720000Y-139700000D03*
X299720000Y-142240000D03*
X299720000Y-144780000D03*
X299720000Y-147320000D03*
X299720000Y-149860000D03*
X299720000Y-152400000D03*
X307340000Y-152400000D03*
X307340000Y-149860000D03*
X307340000Y-147320000D03*
X307340000Y-144780000D03*
X307340000Y-142240000D03*
X307340000Y-139700000D03*
X307340000Y-137160000D03*
%TD*%
D18*
%TO.C,C22*%
X335750000Y-125230000D03*
X342100000Y-125230000D03*
%TD*%
D19*
%TO.C,U29*%
X281940000Y-105410000D03*
X281940000Y-107950000D03*
X281940000Y-110490000D03*
X281940000Y-113030000D03*
X281940000Y-115570000D03*
X281940000Y-118110000D03*
X281940000Y-120650000D03*
X289560000Y-120650000D03*
X289560000Y-118110000D03*
X289560000Y-115570000D03*
X289560000Y-113030000D03*
X289560000Y-110490000D03*
X289560000Y-107950000D03*
X289560000Y-105410000D03*
%TD*%
D18*
%TO.C,R5*%
X274880000Y-158380000D03*
X274880000Y-171080000D03*
%TD*%
%TO.C,C31*%
X279720000Y-102330000D03*
X273370000Y-102330000D03*
%TD*%
%TO.C,R18*%
X295590000Y-70080000D03*
X295590000Y-82140000D03*
%TD*%
D19*
%TO.C,U32*%
X335280000Y-105410000D03*
X335280000Y-107950000D03*
X335280000Y-110490000D03*
X335280000Y-113030000D03*
X335280000Y-115570000D03*
X335280000Y-118110000D03*
X335280000Y-120650000D03*
X342900000Y-120650000D03*
X342900000Y-118110000D03*
X342900000Y-115570000D03*
X342900000Y-113030000D03*
X342900000Y-110490000D03*
X342900000Y-107950000D03*
X342900000Y-105410000D03*
%TD*%
D18*
%TO.C,C32*%
X300070000Y-99830000D03*
X306420000Y-99830000D03*
%TD*%
D19*
%TO.C,U39*%
X177800000Y-78740000D03*
X177800000Y-81280000D03*
X177800000Y-83820000D03*
X177800000Y-86360000D03*
X177800000Y-88900000D03*
X177800000Y-91440000D03*
X177800000Y-93980000D03*
X177800000Y-96520000D03*
X177800000Y-99060000D03*
X177800000Y-101600000D03*
X177800000Y-104140000D03*
X187960000Y-104140000D03*
X187960000Y-101600000D03*
X187960000Y-99060000D03*
X187960000Y-96520000D03*
X187960000Y-93980000D03*
X187960000Y-91440000D03*
X187960000Y-88900000D03*
X187960000Y-86360000D03*
X187960000Y-83820000D03*
X187960000Y-81280000D03*
X187960000Y-78740000D03*
%TD*%
%TO.C,U40*%
X194310000Y-78740000D03*
X194310000Y-81280000D03*
X194310000Y-83820000D03*
X194310000Y-86360000D03*
X194310000Y-88900000D03*
X194310000Y-91440000D03*
X194310000Y-93980000D03*
X194310000Y-96520000D03*
X194310000Y-99060000D03*
X194310000Y-101600000D03*
X194310000Y-104140000D03*
X204470000Y-104140000D03*
X204470000Y-101600000D03*
X204470000Y-99060000D03*
X204470000Y-96520000D03*
X204470000Y-93980000D03*
X204470000Y-91440000D03*
X204470000Y-88900000D03*
X204470000Y-86360000D03*
X204470000Y-83820000D03*
X204470000Y-81280000D03*
X204470000Y-78740000D03*
%TD*%
D20*
%TO.C,C51*%
X114130000Y-72540000D03*
X109130000Y-72540000D03*
%TD*%
D18*
%TO.C,R1*%
X119200000Y-146430000D03*
X131900000Y-146430000D03*
%TD*%
D19*
%TO.C,U35*%
X96520000Y-76200000D03*
X96520000Y-78740000D03*
X96520000Y-81280000D03*
X96520000Y-83820000D03*
X96520000Y-86360000D03*
X96520000Y-88900000D03*
X96520000Y-91440000D03*
X96520000Y-93980000D03*
X104140000Y-93980000D03*
X104140000Y-91440000D03*
X104140000Y-88900000D03*
X104140000Y-86360000D03*
X104140000Y-83820000D03*
X104140000Y-81280000D03*
X104140000Y-78740000D03*
X104140000Y-76200000D03*
%TD*%
D26*
%TO.C,Q1*%
X161500000Y-158040000D03*
D27*
X145640000Y-155500000D03*
X147520000Y-158040000D03*
X145640000Y-160580000D03*
%TD*%
D18*
%TO.C,C21*%
X270300000Y-121430000D03*
X270300000Y-115080000D03*
%TD*%
D19*
%TO.C,U19*%
X76200000Y-121920000D03*
X76200000Y-124460000D03*
X76200000Y-127000000D03*
X76200000Y-129540000D03*
X76200000Y-132080000D03*
X76200000Y-134620000D03*
X76200000Y-137160000D03*
X83820000Y-137160000D03*
X83820000Y-134620000D03*
X83820000Y-132080000D03*
X83820000Y-129540000D03*
X83820000Y-127000000D03*
X83820000Y-124460000D03*
X83820000Y-121920000D03*
%TD*%
D18*
%TO.C,R4*%
X253780000Y-150090000D03*
X266480000Y-150090000D03*
%TD*%
%TO.C,C2*%
X151650000Y-192130000D03*
X160506171Y-191355185D03*
%TD*%
D22*
%TO.C,Q7*%
X272670000Y-90130000D03*
X274220000Y-88860000D03*
X272670000Y-87590000D03*
%TD*%
D18*
%TO.C,C45*%
X289440000Y-124620000D03*
X283090000Y-124620000D03*
%TD*%
D21*
%TO.C,U6*%
X210820000Y-180340000D03*
X213360000Y-180340000D03*
X215900000Y-180340000D03*
X218440000Y-180340000D03*
X220980000Y-180340000D03*
X223520000Y-180340000D03*
X226060000Y-180340000D03*
X226060000Y-172720000D03*
X223520000Y-172720000D03*
X220980000Y-172720000D03*
X218440000Y-172720000D03*
X215900000Y-172720000D03*
X213360000Y-172720000D03*
X210820000Y-172720000D03*
%TD*%
D19*
%TO.C,U26*%
X210820000Y-111760000D03*
X210820000Y-114300000D03*
X210820000Y-116840000D03*
X210820000Y-119380000D03*
X210820000Y-121920000D03*
X210820000Y-124460000D03*
X210820000Y-127000000D03*
X210820000Y-129540000D03*
X210820000Y-132080000D03*
X210820000Y-134620000D03*
X210820000Y-137160000D03*
X220980000Y-137160000D03*
X220980000Y-134620000D03*
X220980000Y-132080000D03*
X220980000Y-129540000D03*
X220980000Y-127000000D03*
X220980000Y-124460000D03*
X220980000Y-121920000D03*
X220980000Y-119380000D03*
X220980000Y-116840000D03*
X220980000Y-114300000D03*
X220980000Y-111760000D03*
%TD*%
D18*
%TO.C,C33*%
X315950000Y-96720000D03*
X309600000Y-96720000D03*
%TD*%
%TO.C,C10*%
X336380000Y-190690000D03*
X342730000Y-190690000D03*
%TD*%
%TO.C,C3*%
X203020000Y-173450000D03*
X203020000Y-179800000D03*
%TD*%
%TO.C,C40*%
X206440000Y-76600000D03*
X202797790Y-71398385D03*
%TD*%
M02*
